<svg xmlns="http://www.w3.org/2000/svg" xmlns:xlink="http://www.w3.org/1999/xlink" contentStyleType="text/css" data-diagram-type="CLASS" height="789px" preserveAspectRatio="none" style="width:4243px;height:789px;background:#FFFFFF;" version="1.1" viewBox="0 0 4243 789" width="4243px" zoomAndPan="magnify"><defs/><g><!--class Bot--><g id="elem_Bot"><rect codeLine="1" fill="#F1F1F1" height="118.4375" id="Bot" rx="2.5" ry="2.5" style="stroke:#181818;stroke-width:0.5;" width="240.0127" x="955.5" y="42.5"/><ellipse cx="1060.7495" cy="58.5" fill="#ADD1B2" rx="11" ry="11" style="stroke:#181818;stroke-width:1;"/><path d="M1063.5151,54.375 Q1063.6714,54.1563 1063.8589,54.0469 Q1064.0464,53.9375 1064.2651,53.9375 Q1064.6401,53.9375 1064.8745,54.2031 Q1065.1089,54.4531 1065.1089,55.0625 L1065.1089,56.5156 Q1065.1089,57.125 1064.8745,57.3906 Q1064.6401,57.6563 1064.2651,57.6563 Q1063.9214,57.6563 1063.7183,57.4531 Q1063.5151,57.2656 1063.4058,56.75 Q1063.3589,56.3906 1063.1714,56.2031 Q1062.8433,55.8281 1062.2339,55.6094 Q1061.6245,55.3906 1060.9995,55.3906 Q1060.2339,55.3906 1059.5933,55.7188 Q1058.9683,56.0469 1058.4683,56.7969 Q1057.9839,57.5469 1057.9839,58.5781 L1057.9839,59.6719 Q1057.9839,60.9063 1058.8745,61.7344 Q1059.7651,62.5469 1061.3589,62.5469 Q1062.2964,62.5469 1062.9526,62.2969 Q1063.3433,62.1406 1063.7651,61.7031 Q1064.0308,61.4375 1064.1714,61.3594 Q1064.3276,61.2813 1064.5308,61.2813 Q1064.8589,61.2813 1065.1089,61.5469 Q1065.3745,61.7969 1065.3745,62.1406 Q1065.3745,62.4844 1065.0308,62.8906 Q1064.5308,63.4688 1063.7339,63.7969 Q1062.6558,64.25 1061.3589,64.25 Q1059.8433,64.25 1058.6401,63.625 Q1057.6558,63.125 1056.9683,62.0625 Q1056.2808,60.9844 1056.2808,59.7031 L1056.2808,58.5469 Q1056.2808,57.2188 1056.8901,56.0781 Q1057.5151,54.9219 1058.6089,54.3125 Q1059.7026,53.6875 1060.937,53.6875 Q1061.6714,53.6875 1062.312,53.8594 Q1062.9683,54.0156 1063.5151,54.375 Z " fill="#000000"/><text fill="#000000" font-family="sans-serif" font-size="14" lengthAdjust="spacing" textLength="21.0137" x="1081.2495" y="64.2285">Bot</text><line style="stroke:#181818;stroke-width:0.5;" x1="956.5" x2="1194.5127" y1="74.5" y2="74.5"/><rect fill="transparent" height="6" style="stroke:#C82930;stroke-width:1;" width="6" x="963.5" y="85.8047"/><text fill="#000000" font-family="sans-serif" font-size="14" lengthAdjust="spacing" textLength="94.1787" x="975.5" y="93.0332">logger : Logger</text><ellipse cx="966.5" cy="106.4141" fill="transparent" rx="3" ry="3" style="stroke:#038048;stroke-width:1;"/><text fill="#000000" font-family="sans-serif" font-size="14" lengthAdjust="spacing" textLength="56.7998" x="975.5" y="110.6426">jda : JDA</text><ellipse cx="966.5" cy="124.0234" fill="transparent" rx="3" ry="3" style="stroke:#038048;stroke-width:1;"/><text fill="#000000" font-family="sans-serif" font-size="14" lengthAdjust="spacing" textLength="214.0127" x="975.5" y="128.252">moduleManager : ModuleManager</text><line style="stroke:#181818;stroke-width:0.5;" x1="956.5" x2="1194.5127" y1="135.3281" y2="135.3281"/><ellipse cx="966.5" cy="149.6328" fill="#84BE84" rx="3" ry="3" style="stroke:#038048;stroke-width:1;"/><text fill="#000000" font-family="sans-serif" font-size="14" lengthAdjust="spacing" textLength="148.6133" x="975.5" y="153.8613">start(String token) : void</text></g><!--class ICommand--><g id="elem_ICommand"><rect codeLine="7" fill="#F1F1F1" height="118.4375" id="ICommand" rx="2.5" ry="2.5" style="stroke:#181818;stroke-width:0.5;" width="360.6191" x="2424" y="655"/><ellipse cx="2565.8252" cy="671" fill="#B4A7E5" rx="11" ry="11" style="stroke:#181818;stroke-width:1;"/><path d="M2566.7783,667.6406 L2566.7783,674.2969 L2568.4971,674.2969 Q2569.1064,674.2969 2569.3721,674.5313 Q2569.6377,674.7656 2569.6377,675.1563 Q2569.6377,675.5313 2569.3721,675.7656 Q2569.1064,676 2568.4971,676 L2563.3564,676 Q2562.7471,676 2562.4814,675.7656 Q2562.2158,675.5313 2562.2158,675.1406 Q2562.2158,674.7656 2562.4814,674.5313 Q2562.7471,674.2969 2563.3564,674.2969 L2565.0752,674.2969 L2565.0752,667.6406 L2563.3564,667.6406 Q2562.7471,667.6406 2562.4814,667.4063 Q2562.2158,667.1719 2562.2158,666.7813 Q2562.2158,666.4063 2562.4814,666.1719 Q2562.7471,665.9375 2563.3564,665.9375 L2568.4971,665.9375 Q2569.1064,665.9375 2569.3721,666.1719 Q2569.6377,666.4063 2569.6377,666.7813 Q2569.6377,667.1719 2569.3721,667.4063 Q2569.1064,667.6406 2568.4971,667.6406 L2566.7783,667.6406 Z " fill="#000000"/><text fill="#000000" font-family="sans-serif" font-size="14" font-style="italic" lengthAdjust="spacing" textLength="68.4688" x="2586.3252" y="676.7285">ICommand</text><line style="stroke:#181818;stroke-width:0.5;" x1="2425" x2="2783.6191" y1="687" y2="687"/><ellipse cx="2435" cy="701.3047" fill="transparent" rx="3" ry="3" style="stroke:#038048;stroke-width:1;"/><text fill="#000000" font-family="sans-serif" font-size="14" lengthAdjust="spacing" textLength="83.2617" x="2444" y="705.5332">name : String</text><line style="stroke:#181818;stroke-width:0.5;" x1="2425" x2="2783.6191" y1="712.6094" y2="712.6094"/><ellipse cx="2435" cy="726.9141" fill="#84BE84" rx="3" ry="3" style="stroke:#038048;stroke-width:1;"/><text fill="#000000" font-family="sans-serif" font-size="14" lengthAdjust="spacing" textLength="334.6191" x="2444" y="731.1426">execute(SlashCommandInteractionEvent event) : void</text><ellipse cx="2435" cy="744.5234" fill="#84BE84" rx="3" ry="3" style="stroke:#038048;stroke-width:1;"/><text fill="#000000" font-family="sans-serif" font-size="14" lengthAdjust="spacing" textLength="204.6475" x="2444" y="748.752">getSlash() : SlashCommandData</text><ellipse cx="2435" cy="762.1328" fill="#84BE84" rx="3" ry="3" style="stroke:#038048;stroke-width:1;"/><text fill="#000000" font-family="sans-serif" font-size="14" lengthAdjust="spacing" textLength="114.3721" x="2444" y="766.3613">getName() : String</text></g><!--class ModuleManager--><g id="elem_ModuleManager"><rect codeLine="13" fill="#F1F1F1" height="153.6563" id="ModuleManager" rx="2.5" ry="2.5" style="stroke:#181818;stroke-width:0.5;" width="383.9502" x="883.5" y="344"/><ellipse cx="1020.6392" cy="360" fill="#ADD1B2" rx="11" ry="11" style="stroke:#181818;stroke-width:1;"/><path d="M1023.4048,355.875 Q1023.561,355.6563 1023.7485,355.5469 Q1023.936,355.4375 1024.1548,355.4375 Q1024.5298,355.4375 1024.7642,355.7031 Q1024.9985,355.9531 1024.9985,356.5625 L1024.9985,358.0156 Q1024.9985,358.625 1024.7642,358.8906 Q1024.5298,359.1563 1024.1548,359.1563 Q1023.811,359.1563 1023.6079,358.9531 Q1023.4048,358.7656 1023.2954,358.25 Q1023.2485,357.8906 1023.061,357.7031 Q1022.7329,357.3281 1022.1235,357.1094 Q1021.5142,356.8906 1020.8892,356.8906 Q1020.1235,356.8906 1019.4829,357.2188 Q1018.8579,357.5469 1018.3579,358.2969 Q1017.8735,359.0469 1017.8735,360.0781 L1017.8735,361.1719 Q1017.8735,362.4063 1018.7642,363.2344 Q1019.6548,364.0469 1021.2485,364.0469 Q1022.186,364.0469 1022.8423,363.7969 Q1023.2329,363.6406 1023.6548,363.2031 Q1023.9204,362.9375 1024.061,362.8594 Q1024.2173,362.7813 1024.4204,362.7813 Q1024.7485,362.7813 1024.9985,363.0469 Q1025.2642,363.2969 1025.2642,363.6406 Q1025.2642,363.9844 1024.9204,364.3906 Q1024.4204,364.9688 1023.6235,365.2969 Q1022.5454,365.75 1021.2485,365.75 Q1019.7329,365.75 1018.5298,365.125 Q1017.5454,364.625 1016.8579,363.5625 Q1016.1704,362.4844 1016.1704,361.2031 L1016.1704,360.0469 Q1016.1704,358.7188 1016.7798,357.5781 Q1017.4048,356.4219 1018.4985,355.8125 Q1019.5923,355.1875 1020.8267,355.1875 Q1021.561,355.1875 1022.2017,355.3594 Q1022.8579,355.5156 1023.4048,355.875 Z " fill="#000000"/><text fill="#000000" font-family="sans-serif" font-size="14" lengthAdjust="spacing" textLength="101.1719" x="1041.1392" y="365.7285">ModuleManager</text><line style="stroke:#181818;stroke-width:0.5;" x1="884.5" x2="1266.4502" y1="376" y2="376"/><rect fill="transparent" height="6" style="stroke:#C82930;stroke-width:1;" width="6" x="891.5" y="387.3047"/><text fill="#000000" font-family="sans-serif" font-size="14" lengthAdjust="spacing" textLength="234.2402" x="903.5" y="394.5332">modules : Map&lt;String,EventListener&gt;</text><line style="stroke:#181818;stroke-width:0.5;" x1="884.5" x2="1266.4502" y1="401.6094" y2="401.6094"/><ellipse cx="894.5" cy="415.9141" fill="#84BE84" rx="3" ry="3" style="stroke:#038048;stroke-width:1;"/><text fill="#000000" font-family="sans-serif" font-size="14" lengthAdjust="spacing" textLength="357.9502" x="903.5" y="420.1426">registerModule(String name, EventListener module) : void</text><ellipse cx="894.5" cy="433.5234" fill="#84BE84" rx="3" ry="3" style="stroke:#038048;stroke-width:1;"/><text fill="#000000" font-family="sans-serif" font-size="14" lengthAdjust="spacing" textLength="210.1162" x="903.5" y="437.752">enableModule(String name) : void</text><ellipse cx="894.5" cy="451.1328" fill="#84BE84" rx="3" ry="3" style="stroke:#038048;stroke-width:1;"/><text fill="#000000" font-family="sans-serif" font-size="14" lengthAdjust="spacing" textLength="212.4404" x="903.5" y="455.3613">disableModule(String name) : void</text><ellipse cx="894.5" cy="468.7422" fill="#84BE84" rx="3" ry="3" style="stroke:#038048;stroke-width:1;"/><text fill="#000000" font-family="sans-serif" font-size="14" lengthAdjust="spacing" textLength="253.709" x="903.5" y="472.9707">isModuleEnabled(String name) : boolean</text><ellipse cx="894.5" cy="486.3516" fill="#84BE84" rx="3" ry="3" style="stroke:#038048;stroke-width:1;"/><text fill="#000000" font-family="sans-serif" font-size="14" lengthAdjust="spacing" textLength="263.0264" x="903.5" y="490.5801">getModules() : Map&lt;String,EventListener&gt;</text></g><!--class CommandManager--><g id="elem_CommandManager"><rect codeLine="21" fill="#F1F1F1" height="100.8281" id="CommandManager" rx="2.5" ry="2.5" style="stroke:#181818;stroke-width:0.5;" width="492.1289" x="1302.5" y="370.5"/><ellipse cx="1484.3975" cy="386.5" fill="#ADD1B2" rx="11" ry="11" style="stroke:#181818;stroke-width:1;"/><path d="M1487.1631,382.375 Q1487.3193,382.1563 1487.5068,382.0469 Q1487.6943,381.9375 1487.9131,381.9375 Q1488.2881,381.9375 1488.5225,382.2031 Q1488.7568,382.4531 1488.7568,383.0625 L1488.7568,384.5156 Q1488.7568,385.125 1488.5225,385.3906 Q1488.2881,385.6563 1487.9131,385.6563 Q1487.5693,385.6563 1487.3662,385.4531 Q1487.1631,385.2656 1487.0537,384.75 Q1487.0068,384.3906 1486.8193,384.2031 Q1486.4912,383.8281 1485.8818,383.6094 Q1485.2725,383.3906 1484.6475,383.3906 Q1483.8818,383.3906 1483.2412,383.7188 Q1482.6162,384.0469 1482.1162,384.7969 Q1481.6318,385.5469 1481.6318,386.5781 L1481.6318,387.6719 Q1481.6318,388.9063 1482.5225,389.7344 Q1483.4131,390.5469 1485.0068,390.5469 Q1485.9443,390.5469 1486.6006,390.2969 Q1486.9912,390.1406 1487.4131,389.7031 Q1487.6787,389.4375 1487.8193,389.3594 Q1487.9756,389.2813 1488.1787,389.2813 Q1488.5068,389.2813 1488.7568,389.5469 Q1489.0225,389.7969 1489.0225,390.1406 Q1489.0225,390.4844 1488.6787,390.8906 Q1488.1787,391.4688 1487.3818,391.7969 Q1486.3037,392.25 1485.0068,392.25 Q1483.4912,392.25 1482.2881,391.625 Q1481.3037,391.125 1480.6162,390.0625 Q1479.9287,388.9844 1479.9287,387.7031 L1479.9287,386.5469 Q1479.9287,385.2188 1480.5381,384.0781 Q1481.1631,382.9219 1482.2568,382.3125 Q1483.3506,381.6875 1484.585,381.6875 Q1485.3193,381.6875 1485.96,381.8594 Q1486.6162,382.0156 1487.1631,382.375 Z " fill="#000000"/><text fill="#000000" font-family="sans-serif" font-size="14" lengthAdjust="spacing" textLength="119.834" x="1504.8975" y="392.2285">CommandManager</text><line style="stroke:#181818;stroke-width:0.5;" x1="1303.5" x2="1793.6289" y1="402.5" y2="402.5"/><ellipse cx="1313.5" cy="416.8047" fill="transparent" rx="3" ry="3" style="stroke:#038048;stroke-width:1;"/><text fill="#000000" font-family="sans-serif" font-size="14" lengthAdjust="spacing" textLength="186.7441" x="1322.5" y="421.0332">commands : List&lt;ICommand&gt;</text><line style="stroke:#181818;stroke-width:0.5;" x1="1303.5" x2="1793.6289" y1="428.1094" y2="428.1094"/><ellipse cx="1313.5" cy="442.4141" fill="#84BE84" rx="3" ry="3" style="stroke:#038048;stroke-width:1;"/><text fill="#000000" font-family="sans-serif" font-size="14" lengthAdjust="spacing" textLength="242.7852" x="1322.5" y="446.6426">getSlash() : List&lt;SlashCommandData&gt;</text><ellipse cx="1313.5" cy="460.0234" fill="#84BE84" rx="3" ry="3" style="stroke:#038048;stroke-width:1;"/><text fill="#000000" font-family="sans-serif" font-size="14" lengthAdjust="spacing" textLength="466.1289" x="1322.5" y="464.252">onSlashCommandInteraction(SlashCommandInteractionEvent event) : void</text></g><!--class ManageCommands--><g id="elem_ManageCommands"><rect codeLine="26" fill="#F1F1F1" height="48" id="ManageCommands" rx="2.5" ry="2.5" style="stroke:#181818;stroke-width:0.5;" width="154.1719" x="1293.5" y="77.5"/><ellipse cx="1308.5" cy="93.5" fill="#ADD1B2" rx="11" ry="11" style="stroke:#181818;stroke-width:1;"/><path d="M1311.2656,89.375 Q1311.4219,89.1563 1311.6094,89.0469 Q1311.7969,88.9375 1312.0156,88.9375 Q1312.3906,88.9375 1312.625,89.2031 Q1312.8594,89.4531 1312.8594,90.0625 L1312.8594,91.5156 Q1312.8594,92.125 1312.625,92.3906 Q1312.3906,92.6563 1312.0156,92.6563 Q1311.6719,92.6563 1311.4688,92.4531 Q1311.2656,92.2656 1311.1563,91.75 Q1311.1094,91.3906 1310.9219,91.2031 Q1310.5938,90.8281 1309.9844,90.6094 Q1309.375,90.3906 1308.75,90.3906 Q1307.9844,90.3906 1307.3438,90.7188 Q1306.7188,91.0469 1306.2188,91.7969 Q1305.7344,92.5469 1305.7344,93.5781 L1305.7344,94.6719 Q1305.7344,95.9063 1306.625,96.7344 Q1307.5156,97.5469 1309.1094,97.5469 Q1310.0469,97.5469 1310.7031,97.2969 Q1311.0938,97.1406 1311.5156,96.7031 Q1311.7813,96.4375 1311.9219,96.3594 Q1312.0781,96.2813 1312.2813,96.2813 Q1312.6094,96.2813 1312.8594,96.5469 Q1313.125,96.7969 1313.125,97.1406 Q1313.125,97.4844 1312.7813,97.8906 Q1312.2813,98.4688 1311.4844,98.7969 Q1310.4063,99.25 1309.1094,99.25 Q1307.5938,99.25 1306.3906,98.625 Q1305.4063,98.125 1304.7188,97.0625 Q1304.0313,95.9844 1304.0313,94.7031 L1304.0313,93.5469 Q1304.0313,92.2188 1304.6406,91.0781 Q1305.2656,89.9219 1306.3594,89.3125 Q1307.4531,88.6875 1308.6875,88.6875 Q1309.4219,88.6875 1310.0625,88.8594 Q1310.7188,89.0156 1311.2656,89.375 Z " fill="#000000"/><text fill="#000000" font-family="sans-serif" font-size="14" lengthAdjust="spacing" textLength="122.1719" x="1322.5" y="99.2285">ManageCommands</text><line style="stroke:#181818;stroke-width:0.5;" x1="1294.5" x2="1446.6719" y1="109.5" y2="109.5"/><line style="stroke:#181818;stroke-width:0.5;" x1="1294.5" x2="1446.6719" y1="117.5" y2="117.5"/></g><!--class CreateRole--><g id="elem_CreateRole"><rect codeLine="28" fill="#F1F1F1" height="118.4375" id="CreateRole" rx="2.5" ry="2.5" style="stroke:#181818;stroke-width:0.5;" width="360.6191" x="1830" y="362"/><ellipse cx="1970.6528" cy="378" fill="#ADD1B2" rx="11" ry="11" style="stroke:#181818;stroke-width:1;"/><path d="M1973.4185,373.875 Q1973.5747,373.6563 1973.7622,373.5469 Q1973.9497,373.4375 1974.1685,373.4375 Q1974.5435,373.4375 1974.7778,373.7031 Q1975.0122,373.9531 1975.0122,374.5625 L1975.0122,376.0156 Q1975.0122,376.625 1974.7778,376.8906 Q1974.5435,377.1563 1974.1685,377.1563 Q1973.8247,377.1563 1973.6216,376.9531 Q1973.4185,376.7656 1973.3091,376.25 Q1973.2622,375.8906 1973.0747,375.7031 Q1972.7466,375.3281 1972.1372,375.1094 Q1971.5278,374.8906 1970.9028,374.8906 Q1970.1372,374.8906 1969.4966,375.2188 Q1968.8716,375.5469 1968.3716,376.2969 Q1967.8872,377.0469 1967.8872,378.0781 L1967.8872,379.1719 Q1967.8872,380.4063 1968.7778,381.2344 Q1969.6685,382.0469 1971.2622,382.0469 Q1972.1997,382.0469 1972.856,381.7969 Q1973.2466,381.6406 1973.6685,381.2031 Q1973.9341,380.9375 1974.0747,380.8594 Q1974.231,380.7813 1974.4341,380.7813 Q1974.7622,380.7813 1975.0122,381.0469 Q1975.2778,381.2969 1975.2778,381.6406 Q1975.2778,381.9844 1974.9341,382.3906 Q1974.4341,382.9688 1973.6372,383.2969 Q1972.5591,383.75 1971.2622,383.75 Q1969.7466,383.75 1968.5435,383.125 Q1967.5591,382.625 1966.8716,381.5625 Q1966.1841,380.4844 1966.1841,379.2031 L1966.1841,378.0469 Q1966.1841,376.7188 1966.7935,375.5781 Q1967.4185,374.4219 1968.5122,373.8125 Q1969.606,373.1875 1970.8403,373.1875 Q1971.5747,373.1875 1972.2153,373.3594 Q1972.8716,373.5156 1973.4185,373.875 Z " fill="#000000"/><text fill="#000000" font-family="sans-serif" font-size="14" lengthAdjust="spacing" textLength="70.8135" x="1991.1528" y="383.7285">CreateRole</text><line style="stroke:#181818;stroke-width:0.5;" x1="1831" x2="2189.6191" y1="394" y2="394"/><rect fill="transparent" height="6" style="stroke:#C82930;stroke-width:1;" width="6" x="1838" y="405.3047"/><text fill="#000000" font-family="sans-serif" font-size="14" lengthAdjust="spacing" textLength="83.2617" x="1850" y="412.5332">name : String</text><line style="stroke:#181818;stroke-width:0.5;" x1="1831" x2="2189.6191" y1="419.6094" y2="419.6094"/><ellipse cx="1841" cy="433.9141" fill="#84BE84" rx="3" ry="3" style="stroke:#038048;stroke-width:1;"/><text fill="#000000" font-family="sans-serif" font-size="14" lengthAdjust="spacing" textLength="334.6191" x="1850" y="438.1426">execute(SlashCommandInteractionEvent event) : void</text><ellipse cx="1841" cy="451.5234" fill="#84BE84" rx="3" ry="3" style="stroke:#038048;stroke-width:1;"/><text fill="#000000" font-family="sans-serif" font-size="14" lengthAdjust="spacing" textLength="204.6475" x="1850" y="455.752">getSlash() : SlashCommandData</text><ellipse cx="1841" cy="469.1328" fill="#84BE84" rx="3" ry="3" style="stroke:#038048;stroke-width:1;"/><text fill="#000000" font-family="sans-serif" font-size="14" lengthAdjust="spacing" textLength="114.3721" x="1850" y="473.3613">getName() : String</text></g><!--class DeleteRole--><g id="elem_DeleteRole"><rect codeLine="34" fill="#F1F1F1" height="118.4375" id="DeleteRole" rx="2.5" ry="2.5" style="stroke:#181818;stroke-width:0.5;" width="360.6191" x="2226" y="362"/><ellipse cx="2367.4287" cy="378" fill="#ADD1B2" rx="11" ry="11" style="stroke:#181818;stroke-width:1;"/><path d="M2370.1943,373.875 Q2370.3506,373.6563 2370.5381,373.5469 Q2370.7256,373.4375 2370.9443,373.4375 Q2371.3193,373.4375 2371.5537,373.7031 Q2371.7881,373.9531 2371.7881,374.5625 L2371.7881,376.0156 Q2371.7881,376.625 2371.5537,376.8906 Q2371.3193,377.1563 2370.9443,377.1563 Q2370.6006,377.1563 2370.3975,376.9531 Q2370.1943,376.7656 2370.085,376.25 Q2370.0381,375.8906 2369.8506,375.7031 Q2369.5225,375.3281 2368.9131,375.1094 Q2368.3037,374.8906 2367.6787,374.8906 Q2366.9131,374.8906 2366.2725,375.2188 Q2365.6475,375.5469 2365.1475,376.2969 Q2364.6631,377.0469 2364.6631,378.0781 L2364.6631,379.1719 Q2364.6631,380.4063 2365.5537,381.2344 Q2366.4443,382.0469 2368.0381,382.0469 Q2368.9756,382.0469 2369.6318,381.7969 Q2370.0225,381.6406 2370.4443,381.2031 Q2370.71,380.9375 2370.8506,380.8594 Q2371.0068,380.7813 2371.21,380.7813 Q2371.5381,380.7813 2371.7881,381.0469 Q2372.0537,381.2969 2372.0537,381.6406 Q2372.0537,381.9844 2371.71,382.3906 Q2371.21,382.9688 2370.4131,383.2969 Q2369.335,383.75 2368.0381,383.75 Q2366.5225,383.75 2365.3193,383.125 Q2364.335,382.625 2363.6475,381.5625 Q2362.96,380.4844 2362.96,379.2031 L2362.96,378.0469 Q2362.96,376.7188 2363.5693,375.5781 Q2364.1943,374.4219 2365.2881,373.8125 Q2366.3818,373.1875 2367.6162,373.1875 Q2368.3506,373.1875 2368.9912,373.3594 Q2369.6475,373.5156 2370.1943,373.875 Z " fill="#000000"/><text fill="#000000" font-family="sans-serif" font-size="14" lengthAdjust="spacing" textLength="69.2617" x="2387.9287" y="383.7285">DeleteRole</text><line style="stroke:#181818;stroke-width:0.5;" x1="2227" x2="2585.6191" y1="394" y2="394"/><rect fill="transparent" height="6" style="stroke:#C82930;stroke-width:1;" width="6" x="2234" y="405.3047"/><text fill="#000000" font-family="sans-serif" font-size="14" lengthAdjust="spacing" textLength="83.2617" x="2246" y="412.5332">name : String</text><line style="stroke:#181818;stroke-width:0.5;" x1="2227" x2="2585.6191" y1="419.6094" y2="419.6094"/><ellipse cx="2237" cy="433.9141" fill="#84BE84" rx="3" ry="3" style="stroke:#038048;stroke-width:1;"/><text fill="#000000" font-family="sans-serif" font-size="14" lengthAdjust="spacing" textLength="334.6191" x="2246" y="438.1426">execute(SlashCommandInteractionEvent event) : void</text><ellipse cx="2237" cy="451.5234" fill="#84BE84" rx="3" ry="3" style="stroke:#038048;stroke-width:1;"/><text fill="#000000" font-family="sans-serif" font-size="14" lengthAdjust="spacing" textLength="204.6475" x="2246" y="455.752">getSlash() : SlashCommandData</text><ellipse cx="2237" cy="469.1328" fill="#84BE84" rx="3" ry="3" style="stroke:#038048;stroke-width:1;"/><text fill="#000000" font-family="sans-serif" font-size="14" lengthAdjust="spacing" textLength="114.3721" x="2246" y="473.3613">getName() : String</text></g><!--class Ban--><g id="elem_Ban"><rect codeLine="40" fill="#F1F1F1" height="136.0469" id="Ban" rx="2.5" ry="2.5" style="stroke:#181818;stroke-width:0.5;" width="360.6191" x="2622" y="353"/><ellipse cx="2785.6045" cy="369" fill="#ADD1B2" rx="11" ry="11" style="stroke:#181818;stroke-width:1;"/><path d="M2788.3701,364.875 Q2788.5264,364.6563 2788.7139,364.5469 Q2788.9014,364.4375 2789.1201,364.4375 Q2789.4951,364.4375 2789.7295,364.7031 Q2789.9639,364.9531 2789.9639,365.5625 L2789.9639,367.0156 Q2789.9639,367.625 2789.7295,367.8906 Q2789.4951,368.1563 2789.1201,368.1563 Q2788.7764,368.1563 2788.5732,367.9531 Q2788.3701,367.7656 2788.2607,367.25 Q2788.2139,366.8906 2788.0264,366.7031 Q2787.6982,366.3281 2787.0889,366.1094 Q2786.4795,365.8906 2785.8545,365.8906 Q2785.0889,365.8906 2784.4482,366.2188 Q2783.8232,366.5469 2783.3232,367.2969 Q2782.8389,368.0469 2782.8389,369.0781 L2782.8389,370.1719 Q2782.8389,371.4063 2783.7295,372.2344 Q2784.6201,373.0469 2786.2139,373.0469 Q2787.1514,373.0469 2787.8076,372.7969 Q2788.1982,372.6406 2788.6201,372.2031 Q2788.8857,371.9375 2789.0264,371.8594 Q2789.1826,371.7813 2789.3857,371.7813 Q2789.7139,371.7813 2789.9639,372.0469 Q2790.2295,372.2969 2790.2295,372.6406 Q2790.2295,372.9844 2789.8857,373.3906 Q2789.3857,373.9688 2788.5889,374.2969 Q2787.5107,374.75 2786.2139,374.75 Q2784.6982,374.75 2783.4951,374.125 Q2782.5107,373.625 2781.8232,372.5625 Q2781.1357,371.4844 2781.1357,370.2031 L2781.1357,369.0469 Q2781.1357,367.7188 2781.7451,366.5781 Q2782.3701,365.4219 2783.4639,364.8125 Q2784.5576,364.1875 2785.792,364.1875 Q2786.5264,364.1875 2787.167,364.3594 Q2787.8232,364.5156 2788.3701,364.875 Z " fill="#000000"/><text fill="#000000" font-family="sans-serif" font-size="14" lengthAdjust="spacing" textLength="24.9102" x="2806.1045" y="374.7285">Ban</text><line style="stroke:#181818;stroke-width:0.5;" x1="2623" x2="2981.6191" y1="385" y2="385"/><rect fill="transparent" height="6" style="stroke:#C82930;stroke-width:1;" width="6" x="2630" y="396.3047"/><text fill="#000000" font-family="sans-serif" font-size="14" lengthAdjust="spacing" textLength="83.2617" x="2642" y="403.5332">name : String</text><line style="stroke:#181818;stroke-width:0.5;" x1="2623" x2="2981.6191" y1="410.6094" y2="410.6094"/><ellipse cx="2633" cy="424.9141" fill="#84BE84" rx="3" ry="3" style="stroke:#038048;stroke-width:1;"/><text fill="#000000" font-family="sans-serif" font-size="14" lengthAdjust="spacing" textLength="334.6191" x="2642" y="429.1426">execute(SlashCommandInteractionEvent event) : void</text><ellipse cx="2633" cy="442.5234" fill="#84BE84" rx="3" ry="3" style="stroke:#038048;stroke-width:1;"/><text fill="#000000" font-family="sans-serif" font-size="14" lengthAdjust="spacing" textLength="204.6475" x="2642" y="446.752">getSlash() : SlashCommandData</text><rect fill="#F24D5C" height="6" style="stroke:#C82930;stroke-width:1;" width="6" x="2630" y="457.1328"/><text fill="#000000" font-family="sans-serif" font-size="14" lengthAdjust="spacing" textLength="168.8203" x="2642" y="464.3613">parseTime(String time) : int</text><ellipse cx="2633" cy="477.7422" fill="#84BE84" rx="3" ry="3" style="stroke:#038048;stroke-width:1;"/><text fill="#000000" font-family="sans-serif" font-size="14" lengthAdjust="spacing" textLength="114.3721" x="2642" y="481.9707">getName() : String</text></g><!--class Kick--><g id="elem_Kick"><rect codeLine="47" fill="#F1F1F1" height="118.4375" id="Kick" rx="2.5" ry="2.5" style="stroke:#181818;stroke-width:0.5;" width="360.6191" x="3018" y="362"/><ellipse cx="3180.8354" cy="378" fill="#ADD1B2" rx="11" ry="11" style="stroke:#181818;stroke-width:1;"/><path d="M3183.6011,373.875 Q3183.7573,373.6563 3183.9448,373.5469 Q3184.1323,373.4375 3184.3511,373.4375 Q3184.7261,373.4375 3184.9604,373.7031 Q3185.1948,373.9531 3185.1948,374.5625 L3185.1948,376.0156 Q3185.1948,376.625 3184.9604,376.8906 Q3184.7261,377.1563 3184.3511,377.1563 Q3184.0073,377.1563 3183.8042,376.9531 Q3183.6011,376.7656 3183.4917,376.25 Q3183.4448,375.8906 3183.2573,375.7031 Q3182.9292,375.3281 3182.3198,375.1094 Q3181.7104,374.8906 3181.0854,374.8906 Q3180.3198,374.8906 3179.6792,375.2188 Q3179.0542,375.5469 3178.5542,376.2969 Q3178.0698,377.0469 3178.0698,378.0781 L3178.0698,379.1719 Q3178.0698,380.4063 3178.9604,381.2344 Q3179.8511,382.0469 3181.4448,382.0469 Q3182.3823,382.0469 3183.0386,381.7969 Q3183.4292,381.6406 3183.8511,381.2031 Q3184.1167,380.9375 3184.2573,380.8594 Q3184.4136,380.7813 3184.6167,380.7813 Q3184.9448,380.7813 3185.1948,381.0469 Q3185.4604,381.2969 3185.4604,381.6406 Q3185.4604,381.9844 3185.1167,382.3906 Q3184.6167,382.9688 3183.8198,383.2969 Q3182.7417,383.75 3181.4448,383.75 Q3179.9292,383.75 3178.7261,383.125 Q3177.7417,382.625 3177.0542,381.5625 Q3176.3667,380.4844 3176.3667,379.2031 L3176.3667,378.0469 Q3176.3667,376.7188 3176.9761,375.5781 Q3177.6011,374.4219 3178.6948,373.8125 Q3179.7886,373.1875 3181.0229,373.1875 Q3181.7573,373.1875 3182.3979,373.3594 Q3183.0542,373.5156 3183.6011,373.875 Z " fill="#000000"/><text fill="#000000" font-family="sans-serif" font-size="14" lengthAdjust="spacing" textLength="26.4482" x="3201.3354" y="383.7285">Kick</text><line style="stroke:#181818;stroke-width:0.5;" x1="3019" x2="3377.6191" y1="394" y2="394"/><rect fill="transparent" height="6" style="stroke:#C82930;stroke-width:1;" width="6" x="3026" y="405.3047"/><text fill="#000000" font-family="sans-serif" font-size="14" lengthAdjust="spacing" textLength="83.2617" x="3038" y="412.5332">name : String</text><line style="stroke:#181818;stroke-width:0.5;" x1="3019" x2="3377.6191" y1="419.6094" y2="419.6094"/><ellipse cx="3029" cy="433.9141" fill="#84BE84" rx="3" ry="3" style="stroke:#038048;stroke-width:1;"/><text fill="#000000" font-family="sans-serif" font-size="14" lengthAdjust="spacing" textLength="334.6191" x="3038" y="438.1426">execute(SlashCommandInteractionEvent event) : void</text><ellipse cx="3029" cy="451.5234" fill="#84BE84" rx="3" ry="3" style="stroke:#038048;stroke-width:1;"/><text fill="#000000" font-family="sans-serif" font-size="14" lengthAdjust="spacing" textLength="204.6475" x="3038" y="455.752">getSlash() : SlashCommandData</text><ellipse cx="3029" cy="469.1328" fill="#84BE84" rx="3" ry="3" style="stroke:#038048;stroke-width:1;"/><text fill="#000000" font-family="sans-serif" font-size="14" lengthAdjust="spacing" textLength="114.3721" x="3038" y="473.3613">getName() : String</text></g><!--class Mute--><g id="elem_Mute"><rect codeLine="53" fill="#F1F1F1" height="136.0469" id="Mute" rx="2.5" ry="2.5" style="stroke:#181818;stroke-width:0.5;" width="360.6191" x="3414" y="353"/><ellipse cx="3574.4976" cy="369" fill="#ADD1B2" rx="11" ry="11" style="stroke:#181818;stroke-width:1;"/><path d="M3577.2632,364.875 Q3577.4194,364.6563 3577.6069,364.5469 Q3577.7944,364.4375 3578.0132,364.4375 Q3578.3882,364.4375 3578.6226,364.7031 Q3578.8569,364.9531 3578.8569,365.5625 L3578.8569,367.0156 Q3578.8569,367.625 3578.6226,367.8906 Q3578.3882,368.1563 3578.0132,368.1563 Q3577.6694,368.1563 3577.4663,367.9531 Q3577.2632,367.7656 3577.1538,367.25 Q3577.1069,366.8906 3576.9194,366.7031 Q3576.5913,366.3281 3575.9819,366.1094 Q3575.3726,365.8906 3574.7476,365.8906 Q3573.9819,365.8906 3573.3413,366.2188 Q3572.7163,366.5469 3572.2163,367.2969 Q3571.7319,368.0469 3571.7319,369.0781 L3571.7319,370.1719 Q3571.7319,371.4063 3572.6226,372.2344 Q3573.5132,373.0469 3575.1069,373.0469 Q3576.0444,373.0469 3576.7007,372.7969 Q3577.0913,372.6406 3577.5132,372.2031 Q3577.7788,371.9375 3577.9194,371.8594 Q3578.0757,371.7813 3578.2788,371.7813 Q3578.6069,371.7813 3578.8569,372.0469 Q3579.1226,372.2969 3579.1226,372.6406 Q3579.1226,372.9844 3578.7788,373.3906 Q3578.2788,373.9688 3577.4819,374.2969 Q3576.4038,374.75 3575.1069,374.75 Q3573.5913,374.75 3572.3882,374.125 Q3571.4038,373.625 3570.7163,372.5625 Q3570.0288,371.4844 3570.0288,370.2031 L3570.0288,369.0469 Q3570.0288,367.7188 3570.6382,366.5781 Q3571.2632,365.4219 3572.3569,364.8125 Q3573.4507,364.1875 3574.6851,364.1875 Q3575.4194,364.1875 3576.0601,364.3594 Q3576.7163,364.5156 3577.2632,364.875 Z " fill="#000000"/><text fill="#000000" font-family="sans-serif" font-size="14" lengthAdjust="spacing" textLength="31.124" x="3594.9976" y="374.7285">Mute</text><line style="stroke:#181818;stroke-width:0.5;" x1="3415" x2="3773.6191" y1="385" y2="385"/><rect fill="transparent" height="6" style="stroke:#C82930;stroke-width:1;" width="6" x="3422" y="396.3047"/><text fill="#000000" font-family="sans-serif" font-size="14" lengthAdjust="spacing" textLength="83.2617" x="3434" y="403.5332">name : String</text><line style="stroke:#181818;stroke-width:0.5;" x1="3415" x2="3773.6191" y1="410.6094" y2="410.6094"/><ellipse cx="3425" cy="424.9141" fill="#84BE84" rx="3" ry="3" style="stroke:#038048;stroke-width:1;"/><text fill="#000000" font-family="sans-serif" font-size="14" lengthAdjust="spacing" textLength="334.6191" x="3434" y="429.1426">execute(SlashCommandInteractionEvent event) : void</text><ellipse cx="3425" cy="442.5234" fill="#84BE84" rx="3" ry="3" style="stroke:#038048;stroke-width:1;"/><text fill="#000000" font-family="sans-serif" font-size="14" lengthAdjust="spacing" textLength="204.6475" x="3434" y="446.752">getSlash() : SlashCommandData</text><rect fill="#F24D5C" height="6" style="stroke:#C82930;stroke-width:1;" width="6" x="3422" y="457.1328"/><text fill="#000000" font-family="sans-serif" font-size="14" lengthAdjust="spacing" textLength="206.9512" x="3434" y="464.3613">parseTime(String time) : Duration</text><ellipse cx="3425" cy="477.7422" fill="#84BE84" rx="3" ry="3" style="stroke:#038048;stroke-width:1;"/><text fill="#000000" font-family="sans-serif" font-size="14" lengthAdjust="spacing" textLength="114.3721" x="3434" y="481.9707">getName() : String</text></g><!--class ModCommands--><g id="elem_ModCommands"><rect codeLine="60" fill="#F1F1F1" height="48" id="ModCommands" rx="2.5" ry="2.5" style="stroke:#181818;stroke-width:0.5;" width="130.8135" x="1483" y="77.5"/><ellipse cx="1498" cy="93.5" fill="#ADD1B2" rx="11" ry="11" style="stroke:#181818;stroke-width:1;"/><path d="M1500.7656,89.375 Q1500.9219,89.1563 1501.1094,89.0469 Q1501.2969,88.9375 1501.5156,88.9375 Q1501.8906,88.9375 1502.125,89.2031 Q1502.3594,89.4531 1502.3594,90.0625 L1502.3594,91.5156 Q1502.3594,92.125 1502.125,92.3906 Q1501.8906,92.6563 1501.5156,92.6563 Q1501.1719,92.6563 1500.9688,92.4531 Q1500.7656,92.2656 1500.6563,91.75 Q1500.6094,91.3906 1500.4219,91.2031 Q1500.0938,90.8281 1499.4844,90.6094 Q1498.875,90.3906 1498.25,90.3906 Q1497.4844,90.3906 1496.8438,90.7188 Q1496.2188,91.0469 1495.7188,91.7969 Q1495.2344,92.5469 1495.2344,93.5781 L1495.2344,94.6719 Q1495.2344,95.9063 1496.125,96.7344 Q1497.0156,97.5469 1498.6094,97.5469 Q1499.5469,97.5469 1500.2031,97.2969 Q1500.5938,97.1406 1501.0156,96.7031 Q1501.2813,96.4375 1501.4219,96.3594 Q1501.5781,96.2813 1501.7813,96.2813 Q1502.1094,96.2813 1502.3594,96.5469 Q1502.625,96.7969 1502.625,97.1406 Q1502.625,97.4844 1502.2813,97.8906 Q1501.7813,98.4688 1500.9844,98.7969 Q1499.9063,99.25 1498.6094,99.25 Q1497.0938,99.25 1495.8906,98.625 Q1494.9063,98.125 1494.2188,97.0625 Q1493.5313,95.9844 1493.5313,94.7031 L1493.5313,93.5469 Q1493.5313,92.2188 1494.1406,91.0781 Q1494.7656,89.9219 1495.8594,89.3125 Q1496.9531,88.6875 1498.1875,88.6875 Q1498.9219,88.6875 1499.5625,88.8594 Q1500.2188,89.0156 1500.7656,89.375 Z " fill="#000000"/><text fill="#000000" font-family="sans-serif" font-size="14" lengthAdjust="spacing" textLength="98.8135" x="1512" y="99.2285">ModCommands</text><line style="stroke:#181818;stroke-width:0.5;" x1="1484" x2="1612.8135" y1="109.5" y2="109.5"/><line style="stroke:#181818;stroke-width:0.5;" x1="1484" x2="1612.8135" y1="117.5" y2="117.5"/></g><!--class Avatar--><g id="elem_Avatar"><rect codeLine="62" fill="#F1F1F1" height="153.6563" id="Avatar" rx="2.5" ry="2.5" style="stroke:#181818;stroke-width:0.5;" width="426.7705" x="3810" y="344"/><ellipse cx="3998.9043" cy="360" fill="#ADD1B2" rx="11" ry="11" style="stroke:#181818;stroke-width:1;"/><path d="M4001.6699,355.875 Q4001.8262,355.6563 4002.0137,355.5469 Q4002.2012,355.4375 4002.4199,355.4375 Q4002.7949,355.4375 4003.0293,355.7031 Q4003.2637,355.9531 4003.2637,356.5625 L4003.2637,358.0156 Q4003.2637,358.625 4003.0293,358.8906 Q4002.7949,359.1563 4002.4199,359.1563 Q4002.0762,359.1563 4001.873,358.9531 Q4001.6699,358.7656 4001.5605,358.25 Q4001.5137,357.8906 4001.3262,357.7031 Q4000.998,357.3281 4000.3887,357.1094 Q3999.7793,356.8906 3999.1543,356.8906 Q3998.3887,356.8906 3997.748,357.2188 Q3997.123,357.5469 3996.623,358.2969 Q3996.1387,359.0469 3996.1387,360.0781 L3996.1387,361.1719 Q3996.1387,362.4063 3997.0293,363.2344 Q3997.9199,364.0469 3999.5137,364.0469 Q4000.4512,364.0469 4001.1074,363.7969 Q4001.498,363.6406 4001.9199,363.2031 Q4002.1855,362.9375 4002.3262,362.8594 Q4002.4824,362.7813 4002.6855,362.7813 Q4003.0137,362.7813 4003.2637,363.0469 Q4003.5293,363.2969 4003.5293,363.6406 Q4003.5293,363.9844 4003.1855,364.3906 Q4002.6855,364.9688 4001.8887,365.2969 Q4000.8105,365.75 3999.5137,365.75 Q3997.998,365.75 3996.7949,365.125 Q3995.8105,364.625 3995.123,363.5625 Q3994.4355,362.4844 3994.4355,361.2031 L3994.4355,360.0469 Q3994.4355,358.7188 3995.0449,357.5781 Q3995.6699,356.4219 3996.7637,355.8125 Q3997.8574,355.1875 3999.0918,355.1875 Q3999.8262,355.1875 4000.4668,355.3594 Q4001.123,355.5156 4001.6699,355.875 Z " fill="#000000"/><text fill="#000000" font-family="sans-serif" font-size="14" lengthAdjust="spacing" textLength="40.4619" x="4019.4043" y="365.7285">Avatar</text><line style="stroke:#181818;stroke-width:0.5;" x1="3811" x2="4235.7705" y1="376" y2="376"/><rect fill="transparent" height="6" style="stroke:#C82930;stroke-width:1;" width="6" x="3818" y="387.3047"/><text fill="#000000" font-family="sans-serif" font-size="14" lengthAdjust="spacing" textLength="83.2617" x="3830" y="394.5332">name : String</text><line style="stroke:#181818;stroke-width:0.5;" x1="3811" x2="4235.7705" y1="401.6094" y2="401.6094"/><ellipse cx="3821" cy="415.9141" fill="#84BE84" rx="3" ry="3" style="stroke:#038048;stroke-width:1;"/><text fill="#000000" font-family="sans-serif" font-size="14" lengthAdjust="spacing" textLength="334.6191" x="3830" y="420.1426">execute(SlashCommandInteractionEvent event) : void</text><rect fill="#F24D5C" height="6" style="stroke:#C82930;stroke-width:1;" width="6" x="3818" y="430.5234"/><text fill="#000000" font-family="sans-serif" font-size="14" lengthAdjust="spacing" textLength="391.4053" x="3830" y="437.752">buildAvatarEmbed(String avatar, String user) : MessageEmbed</text><rect fill="#F24D5C" height="6" style="stroke:#C82930;stroke-width:1;" width="6" x="3818" y="448.1328"/><text fill="#000000" font-family="sans-serif" font-size="14" lengthAdjust="spacing" textLength="400.7705" x="3830" y="455.3613">buildBannerEmbed(String banner, String user) : MessageEmbed</text><ellipse cx="3821" cy="468.7422" fill="#84BE84" rx="3" ry="3" style="stroke:#038048;stroke-width:1;"/><text fill="#000000" font-family="sans-serif" font-size="14" lengthAdjust="spacing" textLength="204.6475" x="3830" y="472.9707">getSlash() : SlashCommandData</text><ellipse cx="3821" cy="486.3516" fill="#84BE84" rx="3" ry="3" style="stroke:#038048;stroke-width:1;"/><text fill="#000000" font-family="sans-serif" font-size="14" lengthAdjust="spacing" textLength="114.3721" x="3830" y="490.5801">getName() : String</text></g><!--class UserCommands--><g id="elem_UserCommands"><rect codeLine="70" fill="#F1F1F1" height="48" id="UserCommands" rx="2.5" ry="2.5" style="stroke:#181818;stroke-width:0.5;" width="133.1377" x="1649" y="77.5"/><ellipse cx="1664" cy="93.5" fill="#ADD1B2" rx="11" ry="11" style="stroke:#181818;stroke-width:1;"/><path d="M1666.7656,89.375 Q1666.9219,89.1563 1667.1094,89.0469 Q1667.2969,88.9375 1667.5156,88.9375 Q1667.8906,88.9375 1668.125,89.2031 Q1668.3594,89.4531 1668.3594,90.0625 L1668.3594,91.5156 Q1668.3594,92.125 1668.125,92.3906 Q1667.8906,92.6563 1667.5156,92.6563 Q1667.1719,92.6563 1666.9688,92.4531 Q1666.7656,92.2656 1666.6563,91.75 Q1666.6094,91.3906 1666.4219,91.2031 Q1666.0938,90.8281 1665.4844,90.6094 Q1664.875,90.3906 1664.25,90.3906 Q1663.4844,90.3906 1662.8438,90.7188 Q1662.2188,91.0469 1661.7188,91.7969 Q1661.2344,92.5469 1661.2344,93.5781 L1661.2344,94.6719 Q1661.2344,95.9063 1662.125,96.7344 Q1663.0156,97.5469 1664.6094,97.5469 Q1665.5469,97.5469 1666.2031,97.2969 Q1666.5938,97.1406 1667.0156,96.7031 Q1667.2813,96.4375 1667.4219,96.3594 Q1667.5781,96.2813 1667.7813,96.2813 Q1668.1094,96.2813 1668.3594,96.5469 Q1668.625,96.7969 1668.625,97.1406 Q1668.625,97.4844 1668.2813,97.8906 Q1667.7813,98.4688 1666.9844,98.7969 Q1665.9063,99.25 1664.6094,99.25 Q1663.0938,99.25 1661.8906,98.625 Q1660.9063,98.125 1660.2188,97.0625 Q1659.5313,95.9844 1659.5313,94.7031 L1659.5313,93.5469 Q1659.5313,92.2188 1660.1406,91.0781 Q1660.7656,89.9219 1661.8594,89.3125 Q1662.9531,88.6875 1664.1875,88.6875 Q1664.9219,88.6875 1665.5625,88.8594 Q1666.2188,89.0156 1666.7656,89.375 Z " fill="#000000"/><text fill="#000000" font-family="sans-serif" font-size="14" lengthAdjust="spacing" textLength="101.1377" x="1678" y="99.2285">UserCommands</text><line style="stroke:#181818;stroke-width:0.5;" x1="1650" x2="1781.1377" y1="109.5" y2="109.5"/><line style="stroke:#181818;stroke-width:0.5;" x1="1650" x2="1781.1377" y1="117.5" y2="117.5"/></g><!--class DatabaseManager--><g id="elem_DatabaseManager"><rect codeLine="72" fill="#F1F1F1" height="188.875" id="DatabaseManager" rx="2.5" ry="2.5" style="stroke:#181818;stroke-width:0.5;" width="346.6123" x="28" y="7"/><ellipse cx="139.4634" cy="23" fill="#ADD1B2" rx="11" ry="11" style="stroke:#181818;stroke-width:1;"/><path d="M142.229,18.875 Q142.3853,18.6563 142.5728,18.5469 Q142.7603,18.4375 142.979,18.4375 Q143.354,18.4375 143.5884,18.7031 Q143.8228,18.9531 143.8228,19.5625 L143.8228,21.0156 Q143.8228,21.625 143.5884,21.8906 Q143.354,22.1563 142.979,22.1563 Q142.6353,22.1563 142.4321,21.9531 Q142.229,21.7656 142.1196,21.25 Q142.0728,20.8906 141.8853,20.7031 Q141.5571,20.3281 140.9478,20.1094 Q140.3384,19.8906 139.7134,19.8906 Q138.9478,19.8906 138.3071,20.2188 Q137.6821,20.5469 137.1821,21.2969 Q136.6978,22.0469 136.6978,23.0781 L136.6978,24.1719 Q136.6978,25.4063 137.5884,26.2344 Q138.479,27.0469 140.0728,27.0469 Q141.0103,27.0469 141.6665,26.7969 Q142.0571,26.6406 142.479,26.2031 Q142.7446,25.9375 142.8853,25.8594 Q143.0415,25.7813 143.2446,25.7813 Q143.5728,25.7813 143.8228,26.0469 Q144.0884,26.2969 144.0884,26.6406 Q144.0884,26.9844 143.7446,27.3906 Q143.2446,27.9688 142.4478,28.2969 Q141.3696,28.75 140.0728,28.75 Q138.5571,28.75 137.354,28.125 Q136.3696,27.625 135.6821,26.5625 Q134.9946,25.4844 134.9946,24.2031 L134.9946,23.0469 Q134.9946,21.7188 135.604,20.5781 Q136.229,19.4219 137.3228,18.8125 Q138.4165,18.1875 139.6509,18.1875 Q140.3853,18.1875 141.0259,18.3594 Q141.6821,18.5156 142.229,18.875 Z " fill="#000000"/><text fill="#000000" font-family="sans-serif" font-size="14" lengthAdjust="spacing" textLength="115.1855" x="159.9634" y="28.7285">DatabaseManager</text><line style="stroke:#181818;stroke-width:0.5;" x1="29" x2="373.6123" y1="39" y2="39"/><rect fill="transparent" height="6" style="stroke:#C82930;stroke-width:1;" width="6" x="36" y="50.3047"/><text fill="#000000" font-family="sans-serif" font-size="14" lengthAdjust="spacing" textLength="63.7998" x="48" y="57.5332">url : String</text><rect fill="transparent" height="6" style="stroke:#C82930;stroke-width:1;" width="6" x="36" y="67.9141"/><text fill="#000000" font-family="sans-serif" font-size="14" lengthAdjust="spacing" textLength="75.4756" x="48" y="75.1426">user : String</text><rect fill="transparent" height="6" style="stroke:#C82930;stroke-width:1;" width="6" x="36" y="85.5234"/><text fill="#000000" font-family="sans-serif" font-size="14" lengthAdjust="spacing" textLength="108.1582" x="48" y="92.752">password : String</text><rect fill="transparent" height="6" style="stroke:#C82930;stroke-width:1;" width="6" x="36" y="103.1328"/><text fill="#000000" font-family="sans-serif" font-size="14" lengthAdjust="spacing" textLength="150.2129" x="48" y="110.3613">connection : Connection</text><line style="stroke:#181818;stroke-width:0.5;" x1="29" x2="373.6123" y1="117.4375" y2="117.4375"/><rect fill="#F24D5C" height="6" style="stroke:#C82930;stroke-width:1;" width="6" x="36" y="128.7422"/><text fill="#000000" font-family="sans-serif" font-size="14" lengthAdjust="spacing" textLength="95.71" x="48" y="135.9707">connect() : void</text><ellipse cx="39" cy="149.3516" fill="#84BE84" rx="3" ry="3" style="stroke:#038048;stroke-width:1;"/><text fill="#000000" font-family="sans-serif" font-size="14" lengthAdjust="spacing" textLength="320.6123" x="48" y="153.5801">addPenalty(String userId, String penaltyType) : void</text><ellipse cx="39" cy="166.9609" fill="#84BE84" rx="3" ry="3" style="stroke:#038048;stroke-width:1;"/><text fill="#000000" font-family="sans-serif" font-size="14" lengthAdjust="spacing" textLength="238.1162" x="48" y="171.1895">getPenalties(String userId) : ResultSet</text><ellipse cx="39" cy="184.5703" fill="#84BE84" rx="3" ry="3" style="stroke:#038048;stroke-width:1;"/><text fill="#000000" font-family="sans-serif" font-size="14" lengthAdjust="spacing" textLength="79.3584" x="48" y="188.7988">close() : void</text></g><!--class EventListener--><g id="elem_EventListener"><rect codeLine="82" fill="#F1F1F1" height="136.0469" id="EventListener" rx="2.5" ry="2.5" style="stroke:#181818;stroke-width:0.5;" width="436.1289" x="1094.5" y="646"/><ellipse cx="1265.5112" cy="662" fill="#ADD1B2" rx="11" ry="11" style="stroke:#181818;stroke-width:1;"/><path d="M1268.2769,657.875 Q1268.4331,657.6563 1268.6206,657.5469 Q1268.8081,657.4375 1269.0269,657.4375 Q1269.4019,657.4375 1269.6362,657.7031 Q1269.8706,657.9531 1269.8706,658.5625 L1269.8706,660.0156 Q1269.8706,660.625 1269.6362,660.8906 Q1269.4019,661.1563 1269.0269,661.1563 Q1268.6831,661.1563 1268.48,660.9531 Q1268.2769,660.7656 1268.1675,660.25 Q1268.1206,659.8906 1267.9331,659.7031 Q1267.605,659.3281 1266.9956,659.1094 Q1266.3862,658.8906 1265.7612,658.8906 Q1264.9956,658.8906 1264.355,659.2188 Q1263.73,659.5469 1263.23,660.2969 Q1262.7456,661.0469 1262.7456,662.0781 L1262.7456,663.1719 Q1262.7456,664.4063 1263.6362,665.2344 Q1264.5269,666.0469 1266.1206,666.0469 Q1267.0581,666.0469 1267.7144,665.7969 Q1268.105,665.6406 1268.5269,665.2031 Q1268.7925,664.9375 1268.9331,664.8594 Q1269.0894,664.7813 1269.2925,664.7813 Q1269.6206,664.7813 1269.8706,665.0469 Q1270.1362,665.2969 1270.1362,665.6406 Q1270.1362,665.9844 1269.7925,666.3906 Q1269.2925,666.9688 1268.4956,667.2969 Q1267.4175,667.75 1266.1206,667.75 Q1264.605,667.75 1263.4019,667.125 Q1262.4175,666.625 1261.73,665.5625 Q1261.0425,664.4844 1261.0425,663.2031 L1261.0425,662.0469 Q1261.0425,660.7188 1261.6519,659.5781 Q1262.2769,658.4219 1263.3706,657.8125 Q1264.4644,657.1875 1265.6987,657.1875 Q1266.4331,657.1875 1267.0737,657.3594 Q1267.73,657.5156 1268.2769,657.875 Z " fill="#000000"/><text fill="#000000" font-family="sans-serif" font-size="14" lengthAdjust="spacing" textLength="85.6064" x="1286.0112" y="667.7285">EventListener</text><line style="stroke:#181818;stroke-width:0.5;" x1="1095.5" x2="1529.6289" y1="678" y2="678"/><ellipse cx="1105.5" cy="692.3047" fill="transparent" rx="3" ry="3" style="stroke:#038048;stroke-width:1;"/><text fill="#000000" font-family="sans-serif" font-size="14" lengthAdjust="spacing" textLength="187.5645" x="1114.5" y="696.5332">isCommandEnabled : boolean</text><line style="stroke:#181818;stroke-width:0.5;" x1="1095.5" x2="1529.6289" y1="703.6094" y2="703.6094"/><ellipse cx="1105.5" cy="717.9141" fill="#84BE84" rx="3" ry="3" style="stroke:#038048;stroke-width:1;"/><text fill="#000000" font-family="sans-serif" font-size="14" lengthAdjust="spacing" textLength="366.5293" x="1114.5" y="722.1426">onMessageReceived(MessageReceivedEvent event) : void</text><ellipse cx="1105.5" cy="735.5234" fill="#84BE84" rx="3" ry="3" style="stroke:#038048;stroke-width:1;"/><text fill="#000000" font-family="sans-serif" font-size="14" lengthAdjust="spacing" textLength="410.1289" x="1114.5" y="739.752">onMessageReactionAdd(MessageReactionAddEvent event) : void</text><ellipse cx="1105.5" cy="753.1328" fill="#84BE84" rx="3" ry="3" style="stroke:#038048;stroke-width:1;"/><text fill="#000000" font-family="sans-serif" font-size="14" lengthAdjust="spacing" textLength="284.8535" x="1114.5" y="757.3613">setCommandEnabled(boolean enabled) : void</text><ellipse cx="1105.5" cy="770.7422" fill="#84BE84" rx="3" ry="3" style="stroke:#038048;stroke-width:1;"/><text fill="#000000" font-family="sans-serif" font-size="14" lengthAdjust="spacing" textLength="196.8887" x="1114.5" y="774.9707">isCommandEnabled() : boolean</text></g><!--class GuiManager--><g id="elem_GuiManager"><rect codeLine="89" fill="#F1F1F1" height="83.2188" id="GuiManager" rx="2.5" ry="2.5" style="stroke:#181818;stroke-width:0.5;" width="144.2617" x="410.5" y="60"/><ellipse cx="441.3493" cy="76" fill="#ADD1B2" rx="11" ry="11" style="stroke:#181818;stroke-width:1;"/><path d="M444.1149,71.875 Q444.2712,71.6563 444.4587,71.5469 Q444.6462,71.4375 444.8649,71.4375 Q445.2399,71.4375 445.4743,71.7031 Q445.7087,71.9531 445.7087,72.5625 L445.7087,74.0156 Q445.7087,74.625 445.4743,74.8906 Q445.2399,75.1563 444.8649,75.1563 Q444.5212,75.1563 444.3181,74.9531 Q444.1149,74.7656 444.0056,74.25 Q443.9587,73.8906 443.7712,73.7031 Q443.4431,73.3281 442.8337,73.1094 Q442.2243,72.8906 441.5993,72.8906 Q440.8337,72.8906 440.1931,73.2188 Q439.5681,73.5469 439.0681,74.2969 Q438.5837,75.0469 438.5837,76.0781 L438.5837,77.1719 Q438.5837,78.4063 439.4743,79.2344 Q440.3649,80.0469 441.9587,80.0469 Q442.8962,80.0469 443.5524,79.7969 Q443.9431,79.6406 444.3649,79.2031 Q444.6306,78.9375 444.7712,78.8594 Q444.9274,78.7813 445.1306,78.7813 Q445.4587,78.7813 445.7087,79.0469 Q445.9743,79.2969 445.9743,79.6406 Q445.9743,79.9844 445.6306,80.3906 Q445.1306,80.9688 444.3337,81.2969 Q443.2556,81.75 441.9587,81.75 Q440.4431,81.75 439.2399,81.125 Q438.2556,80.625 437.5681,79.5625 Q436.8806,78.4844 436.8806,77.2031 L436.8806,76.0469 Q436.8806,74.7188 437.4899,73.5781 Q438.1149,72.4219 439.2087,71.8125 Q440.3024,71.1875 441.5368,71.1875 Q442.2712,71.1875 442.9118,71.3594 Q443.5681,71.5156 444.1149,71.875 Z " fill="#000000"/><text fill="#000000" font-family="sans-serif" font-size="14" lengthAdjust="spacing" textLength="77.041" x="458.8714" y="81.7285">GuiManager</text><line style="stroke:#181818;stroke-width:0.5;" x1="411.5" x2="553.7617" y1="92" y2="92"/><line style="stroke:#181818;stroke-width:0.5;" x1="411.5" x2="553.7617" y1="100" y2="100"/><ellipse cx="421.5" cy="114.3047" fill="#84BE84" rx="3" ry="3" style="stroke:#038048;stroke-width:1;"/><text fill="#000000" font-family="sans-serif" font-size="14" lengthAdjust="spacing" textLength="118.2617" x="430.5" y="118.5332">initializeGui() : void</text><ellipse cx="421.5" cy="131.9141" fill="#84BE84" rx="3" ry="3" style="stroke:#038048;stroke-width:1;"/><text fill="#000000" font-family="sans-serif" font-size="14" lengthAdjust="spacing" textLength="111.2822" x="430.5" y="136.1426">updateGui() : void</text></g><!--class Main--><g id="elem_Main"><rect codeLine="93" fill="#F1F1F1" height="65.6094" id="Main" rx="2.5" ry="2.5" style="stroke:#181818;stroke-width:0.5;" width="178.4961" x="589.5" y="68.5"/><ellipse cx="659.3257" cy="84.5" fill="#ADD1B2" rx="11" ry="11" style="stroke:#181818;stroke-width:1;"/><path d="M662.0913,80.375 Q662.2476,80.1563 662.4351,80.0469 Q662.6226,79.9375 662.8413,79.9375 Q663.2163,79.9375 663.4507,80.2031 Q663.6851,80.4531 663.6851,81.0625 L663.6851,82.5156 Q663.6851,83.125 663.4507,83.3906 Q663.2163,83.6563 662.8413,83.6563 Q662.4976,83.6563 662.2944,83.4531 Q662.0913,83.2656 661.9819,82.75 Q661.9351,82.3906 661.7476,82.2031 Q661.4194,81.8281 660.8101,81.6094 Q660.2007,81.3906 659.5757,81.3906 Q658.8101,81.3906 658.1694,81.7188 Q657.5444,82.0469 657.0444,82.7969 Q656.5601,83.5469 656.5601,84.5781 L656.5601,85.6719 Q656.5601,86.9063 657.4507,87.7344 Q658.3413,88.5469 659.9351,88.5469 Q660.8726,88.5469 661.5288,88.2969 Q661.9194,88.1406 662.3413,87.7031 Q662.6069,87.4375 662.7476,87.3594 Q662.9038,87.2813 663.1069,87.2813 Q663.4351,87.2813 663.6851,87.5469 Q663.9507,87.7969 663.9507,88.1406 Q663.9507,88.4844 663.6069,88.8906 Q663.1069,89.4688 662.3101,89.7969 Q661.2319,90.25 659.9351,90.25 Q658.4194,90.25 657.2163,89.625 Q656.2319,89.125 655.5444,88.0625 Q654.8569,86.9844 654.8569,85.7031 L654.8569,84.5469 Q654.8569,83.2188 655.4663,82.0781 Q656.0913,80.9219 657.1851,80.3125 Q658.2788,79.6875 659.5132,79.6875 Q660.2476,79.6875 660.8882,79.8594 Q661.5444,80.0156 662.0913,80.375 Z " fill="#000000"/><text fill="#000000" font-family="sans-serif" font-size="14" lengthAdjust="spacing" textLength="30.3447" x="679.8257" y="90.2285">Main</text><line style="stroke:#181818;stroke-width:0.5;" x1="590.5" x2="766.9961" y1="100.5" y2="100.5"/><line style="stroke:#181818;stroke-width:0.5;" x1="590.5" x2="766.9961" y1="108.5" y2="108.5"/><ellipse cx="600.5" cy="122.8047" fill="#84BE84" rx="3" ry="3" style="stroke:#038048;stroke-width:1;"/><text fill="#000000" font-family="sans-serif" font-size="14" lengthAdjust="spacing" textLength="152.4961" x="609.5" y="127.0332">main(String[] args) : void</text></g><!--class UMLGenerator--><g id="elem_UMLGenerator"><rect codeLine="96" fill="#F1F1F1" height="329.75" id="UMLGenerator" rx="2.5" ry="2.5" style="stroke:#181818;stroke-width:0.5;" width="388.5713" x="7" y="256"/><ellipse cx="150.7393" cy="272" fill="#ADD1B2" rx="11" ry="11" style="stroke:#181818;stroke-width:1;"/><path d="M153.5049,267.875 Q153.6611,267.6563 153.8486,267.5469 Q154.0361,267.4375 154.2549,267.4375 Q154.6299,267.4375 154.8643,267.7031 Q155.0986,267.9531 155.0986,268.5625 L155.0986,270.0156 Q155.0986,270.625 154.8643,270.8906 Q154.6299,271.1563 154.2549,271.1563 Q153.9111,271.1563 153.708,270.9531 Q153.5049,270.7656 153.3955,270.25 Q153.3486,269.8906 153.1611,269.7031 Q152.833,269.3281 152.2236,269.1094 Q151.6143,268.8906 150.9893,268.8906 Q150.2236,268.8906 149.583,269.2188 Q148.958,269.5469 148.458,270.2969 Q147.9736,271.0469 147.9736,272.0781 L147.9736,273.1719 Q147.9736,274.4063 148.8643,275.2344 Q149.7549,276.0469 151.3486,276.0469 Q152.2861,276.0469 152.9424,275.7969 Q153.333,275.6406 153.7549,275.2031 Q154.0205,274.9375 154.1611,274.8594 Q154.3174,274.7813 154.5205,274.7813 Q154.8486,274.7813 155.0986,275.0469 Q155.3643,275.2969 155.3643,275.6406 Q155.3643,275.9844 155.0205,276.3906 Q154.5205,276.9688 153.7236,277.2969 Q152.6455,277.75 151.3486,277.75 Q149.833,277.75 148.6299,277.125 Q147.6455,276.625 146.958,275.5625 Q146.2705,274.4844 146.2705,273.2031 L146.2705,272.0469 Q146.2705,270.7188 146.8799,269.5781 Q147.5049,268.4219 148.5986,267.8125 Q149.6924,267.1875 150.9268,267.1875 Q151.6611,267.1875 152.3018,267.3594 Q152.958,267.5156 153.5049,267.875 Z " fill="#000000"/><text fill="#000000" font-family="sans-serif" font-size="14" lengthAdjust="spacing" textLength="92.5928" x="171.2393" y="277.7285">UMLGenerator</text><line style="stroke:#181818;stroke-width:0.5;" x1="8" x2="394.5713" y1="288" y2="288"/><rect fill="transparent" height="6" style="stroke:#C82930;stroke-width:1;" width="6" x="15" y="299.3047"/><text fill="#000000" font-family="sans-serif" font-size="14" lengthAdjust="spacing" textLength="133.0615" x="27" y="306.5332">classes : List&lt;String&gt;</text><rect fill="transparent" height="6" style="stroke:#C82930;stroke-width:1;" width="6" x="15" y="316.9141"/><text fill="#000000" font-family="sans-serif" font-size="14" lengthAdjust="spacing" textLength="164.9785" x="27" y="324.1426">relationships : List&lt;String&gt;</text><rect fill="transparent" height="6" style="stroke:#C82930;stroke-width:1;" width="6" x="15" y="334.5234"/><text fill="#000000" font-family="sans-serif" font-size="14" lengthAdjust="spacing" textLength="200.7646" x="27" y="341.752">javaNativeClasses : Set&lt;String&gt;</text><line style="stroke:#181818;stroke-width:0.5;" x1="8" x2="394.5713" y1="348.8281" y2="348.8281"/><ellipse cx="18" cy="363.1328" fill="#84BE84" rx="3" ry="3" style="stroke:#038048;stroke-width:1;"/><text fill="#000000" font-family="sans-serif" font-size="14" lengthAdjust="spacing" textLength="152.4961" x="27" y="367.3613">main(String[] args) : void</text><rect fill="#F24D5C" height="6" style="stroke:#C82930;stroke-width:1;" width="6" x="15" y="377.7422"/><text fill="#000000" font-family="sans-serif" font-size="14" lengthAdjust="spacing" textLength="213.1719" x="27" y="384.9707">processDirectory(File folder) : void</text><rect fill="#F24D5C" height="6" style="stroke:#C82930;stroke-width:1;" width="6" x="15" y="395.3516"/><text fill="#000000" font-family="sans-serif" font-size="14" lengthAdjust="spacing" textLength="162.5996" x="27" y="402.5801">processFile(File file) : void</text><rect fill="#F24D5C" height="6" style="stroke:#C82930;stroke-width:1;" width="6" x="15" y="412.9609"/><text fill="#000000" font-family="sans-serif" font-size="14" lengthAdjust="spacing" textLength="262.9854" x="27" y="420.1895">processClasses(CompilationUnit cu) : void</text><rect fill="#F24D5C" height="6" style="stroke:#C82930;stroke-width:1;" width="6" x="15" y="430.5703"/><text fill="#000000" font-family="sans-serif" font-size="14" lengthAdjust="spacing" textLength="326.8125" x="27" y="437.7988">processAtributes(List&lt;FieldDeclaration&gt; fields) : void</text><rect fill="#F24D5C" height="6" style="stroke:#C82930;stroke-width:1;" width="6" x="15" y="448.1797"/><text fill="#000000" font-family="sans-serif" font-size="14" lengthAdjust="spacing" textLength="361.0264" x="27" y="455.4082">processMethods(ClassOrInterfaceDeclaration clazz) : void</text><rect fill="#F24D5C" height="6" style="stroke:#C82930;stroke-width:1;" width="6" x="15" y="465.7891"/><text fill="#000000" font-family="sans-serif" font-size="14" lengthAdjust="spacing" textLength="297.2402" x="27" y="473.0176">processRelationships(CompilationUnit cu) : void</text><rect fill="#F24D5C" height="6" style="stroke:#C82930;stroke-width:1;" width="6" x="15" y="483.3984"/><text fill="#000000" font-family="sans-serif" font-size="14" lengthAdjust="spacing" textLength="246.6475" x="27" y="490.627">extractGenericType(String type) : String</text><rect fill="#F24D5C" height="6" style="stroke:#C82930;stroke-width:1;" width="6" x="15" y="501.0078"/><text fill="#000000" font-family="sans-serif" font-size="14" lengthAdjust="spacing" textLength="294.8955" x="27" y="508.2363">isJavaNativeClass(String className) : boolean</text><rect fill="#F24D5C" height="6" style="stroke:#C82930;stroke-width:1;" width="6" x="15" y="518.6172"/><text fill="#000000" font-family="sans-serif" font-size="14" lengthAdjust="spacing" textLength="293.3232" x="27" y="525.8457">isClassInDirectory(String className) : boolean</text><rect fill="#F24D5C" height="6" style="stroke:#C82930;stroke-width:1;" width="6" x="15" y="536.2266"/><text fill="#000000" font-family="sans-serif" font-size="14" lengthAdjust="spacing" textLength="362.5713" x="27" y="543.4551">isClassInDirectory(File folder, String className) : boolean</text><rect fill="#F24D5C" height="6" style="stroke:#C82930;stroke-width:1;" width="6" x="15" y="553.8359"/><text fill="#000000" font-family="sans-serif" font-size="14" lengthAdjust="spacing" textLength="163.4131" x="27" y="561.0645">generatePlantUML() : void</text><rect fill="#F24D5C" height="6" style="stroke:#C82930;stroke-width:1;" width="6" x="15" y="571.4453"/><text fill="#000000" font-family="sans-serif" font-size="14" lengthAdjust="spacing" textLength="234.9854" x="27" y="578.6738">generateImageFromPlantUML() : void</text></g><!--class Utils--><g id="elem_Utils"><rect codeLine="114" fill="#F1F1F1" height="100.8281" id="Utils" rx="2.5" ry="2.5" style="stroke:#181818;stroke-width:0.5;" width="417.3848" x="431" y="370.5"/><ellipse cx="621.832" cy="386.5" fill="#ADD1B2" rx="11" ry="11" style="stroke:#181818;stroke-width:1;"/><path d="M624.5977,382.375 Q624.7539,382.1563 624.9414,382.0469 Q625.1289,381.9375 625.3477,381.9375 Q625.7227,381.9375 625.957,382.2031 Q626.1914,382.4531 626.1914,383.0625 L626.1914,384.5156 Q626.1914,385.125 625.957,385.3906 Q625.7227,385.6563 625.3477,385.6563 Q625.0039,385.6563 624.8008,385.4531 Q624.5977,385.2656 624.4883,384.75 Q624.4414,384.3906 624.2539,384.2031 Q623.9258,383.8281 623.3164,383.6094 Q622.707,383.3906 622.082,383.3906 Q621.3164,383.3906 620.6758,383.7188 Q620.0508,384.0469 619.5508,384.7969 Q619.0664,385.5469 619.0664,386.5781 L619.0664,387.6719 Q619.0664,388.9063 619.957,389.7344 Q620.8477,390.5469 622.4414,390.5469 Q623.3789,390.5469 624.0352,390.2969 Q624.4258,390.1406 624.8477,389.7031 Q625.1133,389.4375 625.2539,389.3594 Q625.4102,389.2813 625.6133,389.2813 Q625.9414,389.2813 626.1914,389.5469 Q626.457,389.7969 626.457,390.1406 Q626.457,390.4844 626.1133,390.8906 Q625.6133,391.4688 624.8164,391.7969 Q623.7383,392.25 622.4414,392.25 Q620.9258,392.25 619.7227,391.625 Q618.7383,391.125 618.0508,390.0625 Q617.3633,388.9844 617.3633,387.7031 L617.3633,386.5469 Q617.3633,385.2188 617.9727,384.0781 Q618.5977,382.9219 619.6914,382.3125 Q620.7852,381.6875 622.0195,381.6875 Q622.7539,381.6875 623.3945,381.8594 Q624.0508,382.0156 624.5977,382.375 Z " fill="#000000"/><text fill="#000000" font-family="sans-serif" font-size="14" lengthAdjust="spacing" textLength="27.2207" x="642.332" y="392.2285">Utils</text><line style="stroke:#181818;stroke-width:0.5;" x1="432" x2="847.3848" y1="402.5" y2="402.5"/><line style="stroke:#181818;stroke-width:0.5;" x1="432" x2="847.3848" y1="410.5" y2="410.5"/><ellipse cx="442" cy="424.8047" fill="#84BE84" rx="3" ry="3" style="stroke:#038048;stroke-width:1;"/><text fill="#000000" font-family="sans-serif" font-size="14" lengthAdjust="spacing" textLength="232.668" x="451" y="429.0332">isValidUserId(String userId) : boolean</text><ellipse cx="442" cy="442.4141" fill="#84BE84" rx="3" ry="3" style="stroke:#038048;stroke-width:1;"/><text fill="#000000" font-family="sans-serif" font-size="14" lengthAdjust="spacing" textLength="391.3848" x="451" y="446.6426">formatPenaltyMessage(String userName, String action) : String</text><ellipse cx="442" cy="460.0234" fill="#84BE84" rx="3" ry="3" style="stroke:#038048;stroke-width:1;"/><text fill="#000000" font-family="sans-serif" font-size="14" lengthAdjust="spacing" textLength="231.1094" x="451" y="464.252">formatDuration(long duration) : String</text></g><!--link Bot to ModuleManager--><g id="link_Bot_ModuleManager"><path codeLine="119" d="M1065.37,160.73 C1062.23,212.2 1061.6414,281.626 1064.1614,337.866 " fill="transparent" id="Bot-to-ModuleManager" style="stroke:#181818;stroke-width:1;"/><polygon fill="#181818" points="1064.43,343.86,1068.0231,334.69,1064.2062,338.865,1060.0311,335.0481,1064.43,343.86" style="stroke:#181818;stroke-width:1;"/></g><!--reverse link Bot to ModuleManager--><g id="link_Bot_ModuleManager"><path codeLine="120" d="M1087.0048,172.705 C1090.3348,224.175 1089.89,287.62 1087.22,343.86 " fill="transparent" id="Bot-backto-ModuleManager" style="stroke:#181818;stroke-width:1;"/><polygon fill="transparent" points="1086.23,160.73,1082.6257,166.9757,1087.0048,172.705,1090.609,166.4592,1086.23,160.73" style="stroke:#181818;stroke-width:1;"/></g><!--link ModuleManager to EventListener--><g id="link_ModuleManager_EventListener"><path codeLine="121" d="M1137.46,498.08 C1174.76,543.88 1218.0407,597.028 1253.9707,641.138 " fill="transparent" id="ModuleManager-to-EventListener" style="stroke:#181818;stroke-width:1;stroke-dasharray:7.0,7.0;"/><polygon fill="#181818" points="1257.76,645.79,1255.1774,636.2858,1254.6022,641.9133,1248.9747,641.3382,1257.76,645.79" style="stroke:#181818;stroke-width:1;"/></g><!--link CommandManager to EventListener--><g id="link_CommandManager_EventListener"><path codeLine="122" d="M1508.2,471.69 C1469.3,519.66 1421.4486,578.6601 1378.3486,631.8001 " fill="transparent" id="CommandManager-to-EventListener" style="stroke:#181818;stroke-width:1;"/><polygon fill="transparent" points="1367.01,645.78,1383.0085,635.5797,1373.6886,628.0206,1367.01,645.78" style="stroke:#181818;stroke-width:1;"/></g><!--link CommandManager to ICommand--><g id="link_CommandManager_ICommand"><path codeLine="123" d="M1598.12,471.55 C1646.21,508.97 1721.7,558.44 1795.5,586 C2002.11,663.16 2250.215,693.0362 2417.995,704.9162 " fill="transparent" id="CommandManager-to-ICommand" style="stroke:#181818;stroke-width:1;"/><polygon fill="#181818" points="2423.98,705.34,2415.285,700.7143,2418.9925,704.9868,2414.72,708.6943,2423.98,705.34" style="stroke:#181818;stroke-width:1;"/></g><!--reverse link CommandManager to ICommand--><g id="link_CommandManager_ICommand"><path codeLine="124" d="M1636.5179,478.3347 C1691.1079,515.7547 1756.7,558.44 1830.5,586 C2025.86,658.96 2263.67,690.02 2423.81,703.23 " fill="transparent" id="CommandManager-backto-ICommand" style="stroke:#181818;stroke-width:1;"/><polygon fill="transparent" points="1626.62,471.55,1629.3074,478.2416,1636.5179,478.3347,1633.8305,471.6431,1626.62,471.55" style="stroke:#181818;stroke-width:1;"/></g><!--link ManageCommands to CommandManager--><g id="link_ManageCommands_CommandManager"><path codeLine="125" d="M1383.44,125.59 C1412.13,176.75 1472.7565,284.9097 1511.8165,354.5697 " fill="transparent" id="ManageCommands-to-CommandManager" style="stroke:#181818;stroke-width:1;"/><polygon fill="transparent" points="1520.62,370.27,1517.0499,351.6352,1506.5831,357.5042,1520.62,370.27" style="stroke:#181818;stroke-width:1;"/></g><!--link CreateRole to ICommand--><g id="link_CreateRole_ICommand"><path codeLine="126" d="M2068.49,480.24 C2105.8,514.98 2156.82,557.7 2208.5,586 C2275.15,622.5 2336.646,645.4338 2406.316,665.6938 " fill="transparent" id="CreateRole-to-ICommand" style="stroke:#181818;stroke-width:1;stroke-dasharray:7.0,7.0;"/><polygon fill="transparent" points="2423.6,670.72,2407.9914,659.9325,2404.6406,671.4552,2423.6,670.72" style="stroke:#181818;stroke-width:1;"/></g><!--link DeleteRole to ICommand--><g id="link_DeleteRole_ICommand"><path codeLine="127" d="M2446.09,480.19 C2480.63,530.94 2520.3323,589.3095 2554.8523,640.0295 " fill="transparent" id="DeleteRole-to-ICommand" style="stroke:#181818;stroke-width:1;stroke-dasharray:7.0,7.0;"/><polygon fill="transparent" points="2564.98,654.91,2559.8125,636.6536,2549.8921,643.4054,2564.98,654.91" style="stroke:#181818;stroke-width:1;"/></g><!--link Ban to ICommand--><g id="link_Ban_ICommand"><path codeLine="128" d="M2756.83,489.13 C2722.79,539.15 2686.895,591.8976 2654.375,639.6976 " fill="transparent" id="Ban-to-ICommand" style="stroke:#181818;stroke-width:1;stroke-dasharray:7.0,7.0;"/><polygon fill="transparent" points="2644.25,654.58,2659.3358,643.0726,2649.4142,636.3226,2644.25,654.58" style="stroke:#181818;stroke-width:1;"/></g><!--link Kick to ICommand--><g id="link_Kick_ICommand"><path codeLine="129" d="M3140.51,480.24 C3103.2,514.98 3052.18,557.7 3000.5,586 C2933.85,622.5 2872.354,645.4338 2802.684,665.6938 " fill="transparent" id="Kick-to-ICommand" style="stroke:#181818;stroke-width:1;stroke-dasharray:7.0,7.0;"/><polygon fill="transparent" points="2785.4,670.72,2804.3594,671.4552,2801.0086,659.9325,2785.4,670.72" style="stroke:#181818;stroke-width:1;"/></g><!--link Mute to ICommand--><g id="link_Mute_ICommand"><path codeLine="130" d="M3531.51,489.21 C3495.33,523.65 3447.12,563.07 3396.5,586 C3199.89,675.07 2968.9988,701.9669 2803.2288,710.0169 " fill="transparent" id="Mute-to-ICommand" style="stroke:#181818;stroke-width:1;stroke-dasharray:7.0,7.0;"/><polygon fill="transparent" points="2785.25,710.89,2803.5198,716.0099,2802.9378,704.024,2785.25,710.89" style="stroke:#181818;stroke-width:1;"/></g><!--link ModCommands to CommandManager--><g id="link_ModCommands_CommandManager"><path codeLine="131" d="M1548.5,125.59 C1548.5,176.75 1548.5,282.61 1548.5,352.27 " fill="transparent" id="ModCommands-to-CommandManager" style="stroke:#181818;stroke-width:1;"/><polygon fill="transparent" points="1548.5,370.27,1554.5,352.27,1542.5,352.27,1548.5,370.27" style="stroke:#181818;stroke-width:1;"/></g><!--link Avatar to ICommand--><g id="link_Avatar_ICommand"><path codeLine="132" d="M3938.87,498.01 C3897.61,530.69 3845.51,565.93 3792.5,586 C3612.76,654.05 3088.7061,689.203 2803.0761,703.933 " fill="transparent" id="Avatar-to-ICommand" style="stroke:#181818;stroke-width:1;stroke-dasharray:7.0,7.0;"/><polygon fill="transparent" points="2785.1,704.86,2803.3851,709.925,2802.7671,697.9409,2785.1,704.86" style="stroke:#181818;stroke-width:1;"/></g><!--link UserCommands to CommandManager--><g id="link_UserCommands_CommandManager"><path codeLine="133" d="M1703.36,125.59 C1676.45,176.75 1619.6811,284.6802 1583.0311,354.3402 " fill="transparent" id="UserCommands-to-CommandManager" style="stroke:#181818;stroke-width:1;"/><polygon fill="transparent" points="1574.65,370.27,1588.341,357.1339,1577.7212,351.5465,1574.65,370.27" style="stroke:#181818;stroke-width:1;"/></g><!--SRC=[pLTBJnin4BxdL_Yu29OVKA58G0254efuz5BruAo7OF3QaUrDUVxtZX-xiJS1X5grNA9uvflnl3mpMmbg3DbJbZmDIYBKR0QQV24d_izWazmoYiVZqIx-hnLh14oef04qIS_8DvPgMrnOpUMCM7K7SWDH2yNPu6N0fGLzJIiWutrLrrGol76JI5e3We8Gdk4UgiP2SO5stKJWs8dIod8b3nOWBG7ts-dU93Em7byuMYevefO6_YdU4zZXffT1vJtFVF0n25uQvn-TxmJubh_tX1iB4lGGLMgOkPCEygtJpfijae6ZliHQa7IALwu89X36pRiORWBxmAjZVTHKAG5K1ky3qlW0lEvL6vCOl6LGDaaLI2ug3h_Jvd3OZxxdzbFWK4g-ajAFfBhBcZTjlpNgQMcw1chX75ttkVpVrJK20P_8d3qg_vKT9PbJRU2IrrtzMXug4pl1ssP-vTNTfuZN12_x104RDPewjUzsiZKFOdU1olNVSg8aquOB5fGUrDDbsw6Uj1MrayQ0ziq6ZC6Nwg6jD5OXjfjCUkf9Rql_KIQlKEEQw3Z1AJLP_s-qMCgNtfRqF4UvNqgpb5OfDDy73QdxtM79AP8oe8oTuGWGzg58t1sppljvu5u-p26ldY36iOzdWWvq3gOHzWBSowg4Cb2izCnyAZtv2H934aT8DZMKZD4_Xmhu0dFLEwylyaGibD4kIoGxqdfX0pQtg8Zsn9d9il7NWwP3h_NvgE7f5EEIMqu5VmHaf3bfvWp7HaPSZXeklN2DVsBWV_maLC_C2lPgSdBaeakj2hNaoT1DpI0zH8O6uP-qkU7pDUnRV4wd25Z0VgS1aziXthG6QrIh2aC-uXfhJ-c7uf3Z1BfMWeLtbSCSCo9uigXq_6X2WV6Uys3s5GQILCqgTXSjcc9JCONtw923O2F0C8GEDiGhaBB6rWdO6yNm4dVPDprkjyL4s4NpyN5Lz3oDvTjMmhrrtSqdYLVkXNMzDhwsxarpSvmdeKNwd9xsjYo7zwYnN4Rzmm99chfky8hqBDGPd0agBTPTaNZPyiOrLlwXLlKggAjOouM9pU0xlWnsvLlAQeDPDePhfMiQUz53VDaf_jJlmErOy0z-8nqxGRwTQOLG26Fnb7Lkzr5IbiFUPuQZghBiKVCrVdjxcBUxGM-bBSldTn73xaEbptFNTxpUAkerv_X1ifHkRpydUfFrC6UuHIsd-9qe9_djf4TATe1rbiHj81VAPkCQgTy0]--></g></svg>