<svg xmlns="http://www.w3.org/2000/svg" xmlns:xlink="http://www.w3.org/1999/xlink" contentStyleType="text/css" height="1158px" preserveAspectRatio="none" style="width:892px;height:1158px;background:#FFFFFF;" version="1.1" viewBox="0 0 892 1158" width="892px" zoomAndPan="magnify"><defs/><g><!--class Application--><g id="elem_Application"><rect codeLine="4" fill="#FFFFFF" height="126.625" id="Application" rx="2.5" ry="2.5" style="stroke:#000000;stroke-width:1.0;" width="419.0537" x="12" y="12"/><ellipse cx="183.7822" cy="32.0938" fill="#FFFFFF" rx="8" ry="8" style="stroke:#000000;stroke-width:1.0;"/><path d="M184.8604,29.4219 Q184.9385,29.2969 185.0479,29.2344 Q185.1729,29.1719 185.2979,29.1719 Q185.5166,29.1719 185.6572,29.3281 Q185.7979,29.4844 185.7979,29.8438 L185.7979,30.6875 Q185.7979,31.0469 185.6572,31.2031 Q185.5166,31.3594 185.2979,31.3594 Q185.0947,31.3594 184.9697,31.25 Q184.8447,31.1406 184.7822,30.8281 Q184.751,30.625 184.6572,30.5156 Q184.4541,30.2813 184.0947,30.1563 Q183.7354,30.0313 183.376,30.0313 Q182.9229,30.0313 182.5479,30.2344 Q182.1729,30.4219 181.876,30.8594 Q181.5947,31.2969 181.5947,31.9063 L181.5947,32.5469 Q181.5947,33.2656 182.1104,33.75 Q182.6416,34.2344 183.5791,34.2344 Q184.1416,34.2344 184.5166,34.0938 Q184.751,34 185.001,33.7344 Q185.1572,33.5781 185.2354,33.5313 Q185.3291,33.4844 185.4385,33.4844 Q185.6416,33.4844 185.7979,33.6406 Q185.9541,33.7969 185.9541,34 Q185.9541,34.2031 185.7354,34.4375 Q185.4385,34.7813 184.9697,34.9688 Q184.3447,35.2344 183.5791,35.2344 Q182.6885,35.2344 181.9854,34.875 Q181.4072,34.5781 181.001,33.9531 Q180.5947,33.3125 180.5947,32.5625 L180.5947,31.8906 Q180.5947,31.1094 180.9541,30.4375 Q181.3291,29.75 181.9697,29.3906 Q182.6104,29.0313 183.3291,29.0313 Q183.7666,29.0313 184.1416,29.125 Q184.5322,29.2188 184.8604,29.4219 Z " fill="#000000"/><text fill="#666666" font-family="Hack" font-size="10" font-style="italic" lengthAdjust="spacing" textLength="54.4727" x="206.7905" y="27.3809">&#171;Controller&#187;</text><text fill="#000000" font-family="Hack" font-size="14" lengthAdjust="spacing" textLength="68.4893" x="199.7822" y="44.1113">Application</text><line style="stroke:#000000;stroke-width:1.0;" x1="13" x2="430.0537" y1="52.1875" y2="52.1875"/><line style="stroke:#000000;stroke-width:1.0;" x1="13" x2="430.0537" y1="60.1875" y2="60.1875"/><ellipse cx="23" cy="74.4922" fill="#FFFFFF" rx="3" ry="3" style="stroke:#000000;stroke-width:1.0;"/><text fill="#000000" font-family="Hack" font-size="14" lengthAdjust="spacing" textLength="152.4961" x="29" y="78.7207">main(String[] args) : void</text><ellipse cx="23" cy="92.1016" fill="#FFFFFF" rx="3" ry="3" style="stroke:#000000;stroke-width:1.0;"/><text fill="#000000" font-family="Hack" font-size="14" lengthAdjust="spacing" textLength="171.1855" x="29" y="96.3301">index(Model model) : String</text><ellipse cx="23" cy="109.7109" fill="#FFFFFF" rx="3" ry="3" style="stroke:#000000;stroke-width:1.0;"/><text fill="#000000" font-family="Hack" font-size="14" lengthAdjust="spacing" textLength="396.0537" x="29" y="113.9395">addResourceHandlers(ResourceHandlerRegistry registry) : void</text><ellipse cx="23" cy="127.3203" fill="#FFFFFF" rx="3" ry="3" style="stroke:#000000;stroke-width:1.0;"/><text fill="#000000" font-family="Hack" font-size="14" lengthAdjust="spacing" textLength="352.4883" x="29" y="131.5488">handleFileUpload(MultipartFile file, Model model) : String</text></g><!--class UMLGenerator--><g id="elem_UMLGenerator"><rect codeLine="10" fill="#FFFFFF" height="360.5781" id="UMLGenerator" rx="2.5" ry="2.5" style="stroke:#000000;stroke-width:1.0;" width="385.5713" x="28.5" y="791"/><ellipse cx="171.4893" cy="804.8047" fill="#FFFFFF" rx="8" ry="8" style="stroke:#000000;stroke-width:1.0;"/><path d="M172.5674,802.1328 Q172.6455,802.0078 172.7549,801.9453 Q172.8799,801.8828 173.0049,801.8828 Q173.2236,801.8828 173.3643,802.0391 Q173.5049,802.1953 173.5049,802.5547 L173.5049,803.3984 Q173.5049,803.7578 173.3643,803.9141 Q173.2236,804.0703 173.0049,804.0703 Q172.8018,804.0703 172.6768,803.9609 Q172.5518,803.8516 172.4893,803.5391 Q172.458,803.3359 172.3643,803.2266 Q172.1611,802.9922 171.8018,802.8672 Q171.4424,802.7422 171.083,802.7422 Q170.6299,802.7422 170.2549,802.9453 Q169.8799,803.1328 169.583,803.5703 Q169.3018,804.0078 169.3018,804.6172 L169.3018,805.2578 Q169.3018,805.9766 169.8174,806.4609 Q170.3486,806.9453 171.2861,806.9453 Q171.8486,806.9453 172.2236,806.8047 Q172.458,806.7109 172.708,806.4453 Q172.8643,806.2891 172.9424,806.2422 Q173.0361,806.1953 173.1455,806.1953 Q173.3486,806.1953 173.5049,806.3516 Q173.6611,806.5078 173.6611,806.7109 Q173.6611,806.9141 173.4424,807.1484 Q173.1455,807.4922 172.6768,807.6797 Q172.0518,807.9453 171.2861,807.9453 Q170.3955,807.9453 169.6924,807.5859 Q169.1143,807.2891 168.708,806.6641 Q168.3018,806.0234 168.3018,805.2734 L168.3018,804.6016 Q168.3018,803.8203 168.6611,803.1484 Q169.0361,802.4609 169.6768,802.1016 Q170.3174,801.7422 171.0361,801.7422 Q171.4736,801.7422 171.8486,801.8359 Q172.2393,801.9297 172.5674,802.1328 Z " fill="#000000"/><text fill="#000000" font-family="Hack" font-size="14" lengthAdjust="spacing" textLength="92.5928" x="187.4893" y="810.5332">UMLGenerator</text><line style="stroke:#000000;stroke-width:1.0;" x1="29.5" x2="413.0713" y1="818.6094" y2="818.6094"/><rect fill="none" height="6" style="stroke:#000000;stroke-width:1.0;" width="6" x="36.5" y="829.9141"/><text fill="#000000" font-family="Hack" font-size="14" lengthAdjust="spacing" textLength="133.0615" x="45.5" y="837.1426">classes : List&lt;String&gt;</text><rect fill="none" height="6" style="stroke:#000000;stroke-width:1.0;" width="6" x="36.5" y="847.5234"/><text fill="#000000" font-family="Hack" font-size="14" lengthAdjust="spacing" textLength="164.9785" x="45.5" y="854.752">relationships : List&lt;String&gt;</text><rect fill="none" height="6" style="stroke:#000000;stroke-width:1.0;" width="6" x="36.5" y="865.1328"/><text fill="#000000" font-family="Hack" font-size="14" lengthAdjust="spacing" textLength="200.7646" x="45.5" y="872.3613">javaNativeClasses : Set&lt;String&gt;</text><rect fill="none" height="6" style="stroke:#000000;stroke-width:1.0;" width="6" x="36.5" y="882.7422"/><text fill="#000000" font-family="Hack" font-size="14" lengthAdjust="spacing" textLength="75.4893" x="45.5" y="889.9707">path : String</text><line style="stroke:#000000;stroke-width:1.0;" x1="29.5" x2="413.0713" y1="897.0469" y2="897.0469"/><ellipse cx="39.5" cy="911.3516" fill="#FFFFFF" rx="3" ry="3" style="stroke:#000000;stroke-width:1.0;"/><text fill="#000000" font-family="Hack" font-size="14" lengthAdjust="spacing" textLength="134.6201" x="45.5" y="915.5801">run(String path) : void</text><rect fill="#FFFFFF" height="6" style="stroke:#000000;stroke-width:1.0;" width="6" x="36.5" y="925.9609"/><text fill="#000000" font-family="Hack" font-size="14" lengthAdjust="spacing" textLength="213.1719" x="45.5" y="933.1895">processDirectory(File folder) : void</text><rect fill="#FFFFFF" height="6" style="stroke:#000000;stroke-width:1.0;" width="6" x="36.5" y="943.5703"/><text fill="#000000" font-family="Hack" font-size="14" lengthAdjust="spacing" textLength="162.5996" x="45.5" y="950.7988">processFile(File file) : void</text><rect fill="#FFFFFF" height="6" style="stroke:#000000;stroke-width:1.0;" width="6" x="36.5" y="961.1797"/><text fill="#000000" font-family="Hack" font-size="14" lengthAdjust="spacing" textLength="262.9854" x="45.5" y="968.4082">processClasses(CompilationUnit cu) : void</text><rect fill="#FFFFFF" height="6" style="stroke:#000000;stroke-width:1.0;" width="6" x="36.5" y="978.7891"/><text fill="#000000" font-family="Hack" font-size="14" lengthAdjust="spacing" textLength="326.8125" x="45.5" y="986.0176">processAtributes(List&lt;FieldDeclaration&gt; fields) : void</text><rect fill="#FFFFFF" height="6" style="stroke:#000000;stroke-width:1.0;" width="6" x="36.5" y="996.3984"/><text fill="#000000" font-family="Hack" font-size="14" lengthAdjust="spacing" textLength="361.0264" x="45.5" y="1003.627">processMethods(ClassOrInterfaceDeclaration clazz) : void</text><rect fill="#FFFFFF" height="6" style="stroke:#000000;stroke-width:1.0;" width="6" x="36.5" y="1014.0078"/><text fill="#000000" font-family="Hack" font-size="14" lengthAdjust="spacing" textLength="297.2402" x="45.5" y="1021.2363">processRelationships(CompilationUnit cu) : void</text><rect fill="#FFFFFF" height="6" style="stroke:#000000;stroke-width:1.0;" width="6" x="36.5" y="1031.6172"/><text fill="#000000" font-family="Hack" font-size="14" lengthAdjust="spacing" textLength="246.6475" x="45.5" y="1038.8457">extractGenericType(String type) : String</text><rect fill="#FFFFFF" height="6" style="stroke:#000000;stroke-width:1.0;" width="6" x="36.5" y="1049.2266"/><text fill="#000000" font-family="Hack" font-size="14" lengthAdjust="spacing" textLength="294.8955" x="45.5" y="1056.4551">isJavaNativeClass(String className) : boolean</text><rect fill="#FFFFFF" height="6" style="stroke:#000000;stroke-width:1.0;" width="6" x="36.5" y="1066.8359"/><text fill="#000000" font-family="Hack" font-size="14" lengthAdjust="spacing" textLength="293.3232" x="45.5" y="1074.0645">isClassInDirectory(String className) : boolean</text><rect fill="#FFFFFF" height="6" style="stroke:#000000;stroke-width:1.0;" width="6" x="36.5" y="1084.4453"/><text fill="#000000" font-family="Hack" font-size="14" lengthAdjust="spacing" textLength="362.5713" x="45.5" y="1091.6738">isClassInDirectory(File folder, String className) : boolean</text><rect fill="#FFFFFF" height="6" style="stroke:#000000;stroke-width:1.0;" width="6" x="36.5" y="1102.0547"/><text fill="#000000" font-family="Hack" font-size="14" lengthAdjust="spacing" textLength="163.4131" x="45.5" y="1109.2832">generatePlantUML() : void</text><rect fill="#FFFFFF" height="6" style="stroke:#000000;stroke-width:1.0;" width="6" x="36.5" y="1119.6641"/><text fill="#000000" font-family="Hack" font-size="14" lengthAdjust="spacing" textLength="234.9854" x="45.5" y="1126.8926">generateImageFromPlantUML() : void</text><rect fill="#FFFFFF" height="6" style="stroke:#000000;stroke-width:1.0;" width="6" x="36.5" y="1137.2734"/><text fill="#000000" font-family="Hack" font-size="14" lengthAdjust="spacing" textLength="210.8135" x="45.5" y="1144.502">createSkin(FileWriter writer) : void</text></g><!--class UMLGeneratorProperties--><g id="elem_UMLGeneratorProperties"><rect codeLine="30" fill="#FFFFFF" height="531.6406" id="UMLGeneratorProperties" rx="2.5" ry="2.5" style="stroke:#000000;stroke-width:1.0;" width="363.8125" x="493.5" y="199"/><ellipse cx="593.7065" cy="219.0938" fill="#FFFFFF" rx="8" ry="8" style="stroke:#000000;stroke-width:1.0;"/><path d="M594.7847,216.4219 Q594.8628,216.2969 594.9722,216.2344 Q595.0972,216.1719 595.2222,216.1719 Q595.4409,216.1719 595.5815,216.3281 Q595.7222,216.4844 595.7222,216.8438 L595.7222,217.6875 Q595.7222,218.0469 595.5815,218.2031 Q595.4409,218.3594 595.2222,218.3594 Q595.019,218.3594 594.894,218.25 Q594.769,218.1406 594.7065,217.8281 Q594.6753,217.625 594.5815,217.5156 Q594.3784,217.2813 594.019,217.1563 Q593.6597,217.0313 593.3003,217.0313 Q592.8472,217.0313 592.4722,217.2344 Q592.0972,217.4219 591.8003,217.8594 Q591.519,218.2969 591.519,218.9063 L591.519,219.5469 Q591.519,220.2656 592.0347,220.75 Q592.5659,221.2344 593.5034,221.2344 Q594.0659,221.2344 594.4409,221.0938 Q594.6753,221 594.9253,220.7344 Q595.0815,220.5781 595.1597,220.5313 Q595.2534,220.4844 595.3628,220.4844 Q595.5659,220.4844 595.7222,220.6406 Q595.8784,220.7969 595.8784,221 Q595.8784,221.2031 595.6597,221.4375 Q595.3628,221.7813 594.894,221.9688 Q594.269,222.2344 593.5034,222.2344 Q592.6128,222.2344 591.9097,221.875 Q591.3315,221.5781 590.9253,220.9531 Q590.519,220.3125 590.519,219.5625 L590.519,218.8906 Q590.519,218.1094 590.8784,217.4375 Q591.2534,216.75 591.894,216.3906 Q592.5347,216.0313 593.2534,216.0313 Q593.6909,216.0313 594.0659,216.125 Q594.4565,216.2188 594.7847,216.4219 Z " fill="#000000"/><text fill="#666666" font-family="Hack" font-size="10" font-style="italic" lengthAdjust="spacing" textLength="62.8223" x="656.4951" y="214.3809">&#171;Component&#187;</text><text fill="#000000" font-family="Hack" font-size="14" lengthAdjust="spacing" textLength="156.3994" x="609.7065" y="231.1113">UMLGeneratorProperties</text><line style="stroke:#000000;stroke-width:1.0;" x1="494.5" x2="856.3125" y1="239.1875" y2="239.1875"/><rect fill="none" height="6" style="stroke:#000000;stroke-width:1.0;" width="6" x="501.5" y="250.4922"/><text fill="#000000" font-family="Hack" font-size="14" lengthAdjust="spacing" textLength="146.2891" x="510.5" y="257.7207">uploadDirectory : String</text><rect fill="none" height="6" style="stroke:#000000;stroke-width:1.0;" width="6" x="501.5" y="268.1016"/><text fill="#000000" font-family="Hack" font-size="14" lengthAdjust="spacing" textLength="143.1719" x="510.5" y="275.3301">outputDirectory : String</text><rect fill="none" height="6" style="stroke:#000000;stroke-width:1.0;" width="6" x="501.5" y="285.7109"/><text fill="#000000" font-family="Hack" font-size="14" lengthAdjust="spacing" textLength="161.0752" x="510.5" y="292.9395">unzippedDirectory : String</text><rect fill="none" height="6" style="stroke:#000000;stroke-width:1.0;" width="6" x="501.5" y="303.3203"/><text fill="#000000" font-family="Hack" font-size="14" lengthAdjust="spacing" textLength="151.7305" x="510.5" y="310.5488">plantUmlJarPath : String</text><rect fill="none" height="6" style="stroke:#000000;stroke-width:1.0;" width="6" x="501.5" y="320.9297"/><text fill="#000000" font-family="Hack" font-size="14" lengthAdjust="spacing" textLength="158.7236" x="510.5" y="328.1582">diagramFileName : String</text><rect fill="none" height="6" style="stroke:#000000;stroke-width:1.0;" width="6" x="501.5" y="338.5391"/><text fill="#000000" font-family="Hack" font-size="14" lengthAdjust="spacing" textLength="164.9648" x="510.5" y="345.7676">plantUmlExtension : String</text><rect fill="none" height="6" style="stroke:#000000;stroke-width:1.0;" width="6" x="501.5" y="356.1484"/><text fill="#000000" font-family="Hack" font-size="14" lengthAdjust="spacing" textLength="131.5098" x="510.5" y="363.377">svgExtension : String</text><line style="stroke:#000000;stroke-width:1.0;" x1="494.5" x2="856.3125" y1="370.4531" y2="370.4531"/><ellipse cx="504.5" cy="384.7578" fill="#FFFFFF" rx="3" ry="3" style="stroke:#000000;stroke-width:1.0;"/><text fill="#000000" font-family="Hack" font-size="14" lengthAdjust="spacing" textLength="177.3994" x="510.5" y="388.9863">getUploadDirectory() : String</text><ellipse cx="504.5" cy="402.3672" fill="#FFFFFF" rx="3" ry="3" style="stroke:#000000;stroke-width:1.0;"/><text fill="#000000" font-family="Hack" font-size="14" lengthAdjust="spacing" textLength="304.2334" x="510.5" y="406.5957">setUploadDirectory(String uploadDirectory) : void</text><ellipse cx="504.5" cy="419.9766" fill="#FFFFFF" rx="3" ry="3" style="stroke:#000000;stroke-width:1.0;"/><text fill="#000000" font-family="Hack" font-size="14" lengthAdjust="spacing" textLength="175.0615" x="510.5" y="424.2051">getOutputDirectory() : String</text><ellipse cx="504.5" cy="437.5859" fill="#FFFFFF" rx="3" ry="3" style="stroke:#000000;stroke-width:1.0;"/><text fill="#000000" font-family="Hack" font-size="14" lengthAdjust="spacing" textLength="298.7783" x="510.5" y="441.8145">setOutputDirectory(String outputDirectory) : void</text><ellipse cx="504.5" cy="455.1953" fill="#FFFFFF" rx="3" ry="3" style="stroke:#000000;stroke-width:1.0;"/><text fill="#000000" font-family="Hack" font-size="14" lengthAdjust="spacing" textLength="192.1855" x="510.5" y="459.4238">getUnzippedDirectory() : String</text><ellipse cx="504.5" cy="472.8047" fill="#FFFFFF" rx="3" ry="3" style="stroke:#000000;stroke-width:1.0;"/><text fill="#000000" font-family="Hack" font-size="14" lengthAdjust="spacing" textLength="333.8057" x="510.5" y="477.0332">setUnzippedDirectory(String unzippedDirectory) : void</text><ellipse cx="504.5" cy="490.4141" fill="#FFFFFF" rx="3" ry="3" style="stroke:#000000;stroke-width:1.0;"/><text fill="#000000" font-family="Hack" font-size="14" lengthAdjust="spacing" textLength="182.0684" x="510.5" y="494.6426">getPlantUmlJarPath() : String</text><ellipse cx="504.5" cy="508.0234" fill="#FFFFFF" rx="3" ry="3" style="stroke:#000000;stroke-width:1.0;"/><text fill="#000000" font-family="Hack" font-size="14" lengthAdjust="spacing" textLength="314.3438" x="510.5" y="512.252">setPlantUmlJarPath(String plantUmlJarPath) : void</text><ellipse cx="504.5" cy="525.6328" fill="#FFFFFF" rx="3" ry="3" style="stroke:#000000;stroke-width:1.0;"/><text fill="#000000" font-family="Hack" font-size="14" lengthAdjust="spacing" textLength="189.834" x="510.5" y="529.8613">getDiagramFileName() : String</text><ellipse cx="504.5" cy="543.2422" fill="#FFFFFF" rx="3" ry="3" style="stroke:#000000;stroke-width:1.0;"/><text fill="#000000" font-family="Hack" font-size="14" lengthAdjust="spacing" textLength="329.1025" x="510.5" y="547.4707">setDiagramFileName(String diagramFileName) : void</text><ellipse cx="504.5" cy="560.8516" fill="#FFFFFF" rx="3" ry="3" style="stroke:#000000;stroke-width:1.0;"/><text fill="#000000" font-family="Hack" font-size="14" lengthAdjust="spacing" textLength="195.3027" x="510.5" y="565.0801">getPlantUmlExtension() : String</text><ellipse cx="504.5" cy="578.4609" fill="#FFFFFF" rx="3" ry="3" style="stroke:#000000;stroke-width:1.0;"/><text fill="#000000" font-family="Hack" font-size="14" lengthAdjust="spacing" textLength="340.8125" x="510.5" y="582.6895">setPlantUmlExtension(String plantUmlExtension) : void</text><ellipse cx="504.5" cy="596.0703" fill="#FFFFFF" rx="3" ry="3" style="stroke:#000000;stroke-width:1.0;"/><text fill="#000000" font-family="Hack" font-size="14" lengthAdjust="spacing" textLength="162.6338" x="510.5" y="600.2988">getSvgExtension() : String</text><ellipse cx="504.5" cy="613.6797" fill="#FFFFFF" rx="3" ry="3" style="stroke:#000000;stroke-width:1.0;"/><text fill="#000000" font-family="Hack" font-size="14" lengthAdjust="spacing" textLength="274.6885" x="510.5" y="617.9082">setSvgExtension(String svgExtension) : void</text><ellipse cx="504.5" cy="631.2891" fill="#FFFFFF" rx="3" ry="3" style="stroke:#000000;stroke-width:1.0;"/><text fill="#000000" font-family="Hack" font-size="14" lengthAdjust="spacing" textLength="172.751" x="510.5" y="635.5176">getFullUploadPath() : String</text><ellipse cx="504.5" cy="648.8984" fill="#FFFFFF" rx="3" ry="3" style="stroke:#000000;stroke-width:1.0;"/><text fill="#000000" font-family="Hack" font-size="14" lengthAdjust="spacing" textLength="170.4131" x="510.5" y="653.127">getFullOutputPath() : String</text><ellipse cx="504.5" cy="666.5078" fill="#FFFFFF" rx="3" ry="3" style="stroke:#000000;stroke-width:1.0;"/><text fill="#000000" font-family="Hack" font-size="14" lengthAdjust="spacing" textLength="187.5371" x="510.5" y="670.7363">getFullUnzippedPath() : String</text><ellipse cx="504.5" cy="684.1172" fill="#FFFFFF" rx="3" ry="3" style="stroke:#000000;stroke-width:1.0;"/><text fill="#000000" font-family="Hack" font-size="14" lengthAdjust="spacing" textLength="193.7236" x="510.5" y="688.3457">getPlantUmlFileName() : String</text><ellipse cx="504.5" cy="701.7266" fill="#FFFFFF" rx="3" ry="3" style="stroke:#000000;stroke-width:1.0;"/><text fill="#000000" font-family="Hack" font-size="14" lengthAdjust="spacing" textLength="161.0547" x="510.5" y="705.9551">getSvgFileName() : String</text><ellipse cx="504.5" cy="719.3359" fill="#FFFFFF" rx="3" ry="3" style="stroke:#000000;stroke-width:1.0;"/><text fill="#000000" font-family="Hack" font-size="14" lengthAdjust="spacing" textLength="147.8135" x="510.5" y="723.5645">getDiagramUrl() : String</text></g><!--class UMLGeneratorUtil--><g id="elem_UMLGeneratorUtil"><rect codeLine="59" fill="#FFFFFF" height="96.4375" id="UMLGeneratorUtil" rx="2.5" ry="2.5" style="stroke:#000000;stroke-width:1.0;" width="259.5098" x="91.5" y="417"/><ellipse cx="161.3481" cy="430.8047" fill="#FFFFFF" rx="8" ry="8" style="stroke:#000000;stroke-width:1.0;"/><path d="M162.4263,428.1328 Q162.5044,428.0078 162.6138,427.9453 Q162.7388,427.8828 162.8638,427.8828 Q163.0825,427.8828 163.2231,428.0391 Q163.3638,428.1953 163.3638,428.5547 L163.3638,429.3984 Q163.3638,429.7578 163.2231,429.9141 Q163.0825,430.0703 162.8638,430.0703 Q162.6606,430.0703 162.5356,429.9609 Q162.4106,429.8516 162.3481,429.5391 Q162.3169,429.3359 162.2231,429.2266 Q162.02,428.9922 161.6606,428.8672 Q161.3013,428.7422 160.9419,428.7422 Q160.4888,428.7422 160.1138,428.9453 Q159.7388,429.1328 159.4419,429.5703 Q159.1606,430.0078 159.1606,430.6172 L159.1606,431.2578 Q159.1606,431.9766 159.6763,432.4609 Q160.2075,432.9453 161.145,432.9453 Q161.7075,432.9453 162.0825,432.8047 Q162.3169,432.7109 162.5669,432.4453 Q162.7231,432.2891 162.8013,432.2422 Q162.895,432.1953 163.0044,432.1953 Q163.2075,432.1953 163.3638,432.3516 Q163.52,432.5078 163.52,432.7109 Q163.52,432.9141 163.3013,433.1484 Q163.0044,433.4922 162.5356,433.6797 Q161.9106,433.9453 161.145,433.9453 Q160.2544,433.9453 159.5513,433.5859 Q158.9731,433.2891 158.5669,432.6641 Q158.1606,432.0234 158.1606,431.2734 L158.1606,430.6016 Q158.1606,429.8203 158.52,429.1484 Q158.895,428.4609 159.5356,428.1016 Q160.1763,427.7422 160.895,427.7422 Q161.3325,427.7422 161.7075,427.8359 Q162.0981,427.9297 162.4263,428.1328 Z " fill="#000000"/><text fill="#000000" font-family="Hack" font-size="14" lengthAdjust="spacing" textLength="112.8135" x="177.3481" y="436.5332">UMLGeneratorUtil</text><line style="stroke:#000000;stroke-width:1.0;" x1="92.5" x2="350.0098" y1="444.6094" y2="444.6094"/><rect fill="none" height="6" style="stroke:#000000;stroke-width:1.0;" width="6" x="99.5" y="455.9141"/><text fill="#000000" font-family="Hack" font-size="14" lengthAdjust="spacing" textLength="94.1787" x="108.5" y="463.1426">logger : Logger</text><line style="stroke:#000000;stroke-width:1.0;" x1="92.5" x2="350.0098" y1="470.2188" y2="470.2188"/><ellipse cx="102.5" cy="484.5234" fill="#FFFFFF" rx="3" ry="3" style="stroke:#000000;stroke-width:1.0;"/><text fill="#000000" font-family="Hack" font-size="14" lengthAdjust="spacing" textLength="222.5371" x="108.5" y="488.752">processUploadedFile(File file) : void</text><rect fill="#FFFFFF" height="6" style="stroke:#000000;stroke-width:1.0;" width="6" x="99.5" y="499.1328"/><text fill="#000000" font-family="Hack" font-size="14" lengthAdjust="spacing" textLength="236.5098" x="108.5" y="506.3613">unzip(File zipFile, File destDir) : String</text></g><!--class WebConfig--><g id="elem_WebConfig"><rect codeLine="64" fill="#FFFFFF" height="91.4063" id="WebConfig" rx="2.5" ry="2.5" style="stroke:#000000;stroke-width:1.0;" width="419.0537" x="466" y="30"/><ellipse cx="637.3994" cy="50.0938" fill="#FFFFFF" rx="8" ry="8" style="stroke:#000000;stroke-width:1.0;"/><path d="M638.4775,47.4219 Q638.5557,47.2969 638.665,47.2344 Q638.79,47.1719 638.915,47.1719 Q639.1338,47.1719 639.2744,47.3281 Q639.415,47.4844 639.415,47.8438 L639.415,48.6875 Q639.415,49.0469 639.2744,49.2031 Q639.1338,49.3594 638.915,49.3594 Q638.7119,49.3594 638.5869,49.25 Q638.4619,49.1406 638.3994,48.8281 Q638.3682,48.625 638.2744,48.5156 Q638.0713,48.2813 637.7119,48.1563 Q637.3525,48.0313 636.9932,48.0313 Q636.54,48.0313 636.165,48.2344 Q635.79,48.4219 635.4932,48.8594 Q635.2119,49.2969 635.2119,49.9063 L635.2119,50.5469 Q635.2119,51.2656 635.7275,51.75 Q636.2588,52.2344 637.1963,52.2344 Q637.7588,52.2344 638.1338,52.0938 Q638.3682,52 638.6182,51.7344 Q638.7744,51.5781 638.8525,51.5313 Q638.9463,51.4844 639.0557,51.4844 Q639.2588,51.4844 639.415,51.6406 Q639.5713,51.7969 639.5713,52 Q639.5713,52.2031 639.3525,52.4375 Q639.0557,52.7813 638.5869,52.9688 Q637.9619,53.2344 637.1963,53.2344 Q636.3057,53.2344 635.6025,52.875 Q635.0244,52.5781 634.6182,51.9531 Q634.2119,51.3125 634.2119,50.5625 L634.2119,49.8906 Q634.2119,49.1094 634.5713,48.4375 Q634.9463,47.75 635.5869,47.3906 Q636.2275,47.0313 636.9463,47.0313 Q637.3838,47.0313 637.7588,47.125 Q638.1494,47.2188 638.4775,47.4219 Z " fill="#000000"/><text fill="#666666" font-family="Hack" font-size="10" font-style="italic" lengthAdjust="spacing" textLength="70.6055" x="652.7241" y="45.3809">&#171;Configuration&#187;</text><text fill="#000000" font-family="Hack" font-size="14" lengthAdjust="spacing" textLength="69.2549" x="653.3994" y="62.1113">WebConfig</text><line style="stroke:#000000;stroke-width:1.0;" x1="467" x2="884.0537" y1="70.1875" y2="70.1875"/><rect fill="none" height="6" style="stroke:#000000;stroke-width:1.0;" width="6" x="474" y="81.4922"/><text fill="#000000" font-family="Hack" font-size="14" lengthAdjust="spacing" textLength="230.3232" x="483" y="88.7207">properties : UMLGeneratorProperties</text><line style="stroke:#000000;stroke-width:1.0;" x1="467" x2="884.0537" y1="95.7969" y2="95.7969"/><ellipse cx="477" cy="110.1016" fill="#FFFFFF" rx="3" ry="3" style="stroke:#000000;stroke-width:1.0;"/><text fill="#000000" font-family="Hack" font-size="14" lengthAdjust="spacing" textLength="396.0537" x="483" y="114.3301">addResourceHandlers(ResourceHandlerRegistry registry) : void</text></g><!--link Application to UMLGeneratorUtil--><g id="link_Application_UMLGeneratorUtil"><path codeLine="68" d="M221.5,139.38 C221.5,217.19 221.5,340.85 221.5,410.78 " fill="none" id="Application-to-UMLGeneratorUtil" style="stroke:#000000;stroke-width:1.0;stroke-dasharray:7.0,7.0;"/><polygon fill="#000000" points="221.5,416.78,225.5,407.78,221.5,411.78,217.5,407.78,221.5,416.78" style="stroke:#000000;stroke-width:1.0;"/><text fill="#000000" font-family="Hack" font-size="13" lengthAdjust="spacing" textLength="40.4663" x="180.5" y="274.5751">&#171;calls&#187;</text></g><!--link UMLGeneratorUtil to UMLGenerator--><g id="link_UMLGeneratorUtil_UMLGenerator"><path codeLine="69" d="M221.5,513.11 C221.5,576.57 221.5,685.82 221.5,784.87 " fill="none" id="UMLGeneratorUtil-to-UMLGenerator" style="stroke:#000000;stroke-width:1.0;stroke-dasharray:7.0,7.0;"/><polygon fill="#000000" points="221.5,790.87,225.5,781.87,221.5,785.87,217.5,781.87,221.5,790.87" style="stroke:#000000;stroke-width:1.0;"/><text fill="#000000" font-family="Hack" font-size="13" lengthAdjust="spacing" textLength="40.4663" x="180.5" y="648.4851">&#171;calls&#187;</text></g><!--link WebConfig to UMLGeneratorProperties--><g id="link_WebConfig_UMLGeneratorProperties"><path codeLine="70" d="M639.1,121.33 C639.1,142.44 639.1,163.35 639.1,192.79 " fill="none" id="WebConfig-to-UMLGeneratorProperties" style="stroke:#000000;stroke-width:1.0;stroke-dasharray:7.0,7.0;"/><polygon fill="#000000" points="639.1,198.79,643.1,189.79,639.1,193.79,635.1,189.79,639.1,198.79" style="stroke:#000000;stroke-width:1.0;"/><text fill="#000000" font-family="Hack" font-size="13" lengthAdjust="spacing" textLength="44.8081" x="594.1" y="156.5551">&#171;inject&#187;</text></g><!--link WebConfig to UMLGeneratorProperties--><g id="link_WebConfig_UMLGeneratorProperties"><path codeLine="71" d="M711.9,121.33 C711.9,142.44 711.9,163.35 711.9,192.79 " fill="none" id="WebConfig-to-UMLGeneratorProperties-1" style="stroke:#000000;stroke-width:1.0;"/><polygon fill="#000000" points="711.9,198.79,715.9,189.79,711.9,193.79,707.9,189.79,711.9,198.79" style="stroke:#000000;stroke-width:1.0;"/></g><!--link WebConfig to UMLGeneratorProperties--><g id="link_WebConfig_UMLGeneratorProperties"><path codeLine="72" d="M784.7,121.33 C784.7,142.44 784.7,163.35 784.7,192.79 " fill="none" id="WebConfig-to-UMLGeneratorProperties-2" style="stroke:#000000;stroke-width:1.0;stroke-dasharray:7.0,7.0;"/><polygon fill="#000000" points="784.7,198.79,788.7,189.79,784.7,193.79,780.7,189.79,784.7,198.79" style="stroke:#000000;stroke-width:1.0;"/><text fill="#000000" font-family="Hack" font-size="13" lengthAdjust="spacing" textLength="40.4663" x="743.7" y="156.5551">&#171;calls&#187;</text></g><!--link WebConfig to UMLGeneratorProperties--><g id="link_WebConfig_UMLGeneratorProperties"><path codeLine="73" d="M566.3,121.33 C566.3,142.44 566.3,163.35 566.3,192.79 " fill="none" id="WebConfig-to-UMLGeneratorProperties-3" style="stroke:#000000;stroke-width:1.0;stroke-dasharray:7.0,7.0;"/><polygon fill="#000000" points="566.3,198.79,570.3,189.79,566.3,193.79,562.3,189.79,566.3,198.79" style="stroke:#000000;stroke-width:1.0;"/><text fill="#000000" font-family="Hack" font-size="13" lengthAdjust="spacing" textLength="50.5781" x="515.3" y="156.5551">&#171;import&#187;</text></g><!--SRC=[fLPTJzim57tlh_3UCh7o0r0L2S6wWIXKT14FqnvCSadD7DkodGwO-E-xSJvgnoaRsakQ-fnxVBzydGzs2nMGIWevCp-PK5JJYd0cm3uh85BRhGyql7oh9PfONSCivzGOSgeKPpcrJ0goM9n9ORNa77IQaj-p8r9H9fADrKoKttyGgalpaPoGdMG5WamKy9IiP04SrV7PO2qPKLeKjs1ahNFuIaM1cYOPBTn2oOpLpqHtBvxurb6MZ4EckAH5iggvPHYARTR80pu-aUczNxlOijNL5n2WgPKQevaJjmm6cLUutQAbfmXeu2u5PilK1Fn8T_GQ2Jiu6nGsu3CKjLi_U5ttQNFG41SojSp1c7Ec8KU_dfCs7CaBq36j0PCXu1Zl_4dEPALO6qCcc2Lv7NDFqP_xsYBRXRTam8jpm9nePvVY5hXYOiCLO2SLk4cpsOs-41Rq0yt1CsvI-_8IczxwYNtRItYockRMLOpbtx25-mmsxUoLTqwOkGmhqZDTWQzfvUZtKdAWml4TwqBii_vk0wzCdyZRrcNRTB3cL5XimiIBiiSkAbh24a_Z52dNW9GD7bstxPrcc77oo_qCjAakNskfG5k67TeSvaf90SAwipmdjJj7GqH-GcLjLMqdeLgyCALWsauvvoj-IVKwE05pKZ1QujXf_6yoD6Nr-Sc2C4ttUA3PbHFhHvWucuK19C6uCJ7ULMaKjpTZKFCcZ3pI7EETvYXXeMOsJbdiQSJeVHq3eV8wp7UaEyRx4HGkXvhdOQ4YpJ7UQOxgE-tdKCc3dkuP8ry785JUUEqHYGPWf-VtKoYrh3blMoREPGUtrJy8zsMS9FGHJYUs3UKWrYKzqppvoyMMMSRTyUQoB75AuENbNb2dcy5jZ50Sl4jSqxK8lYpTpUh-5M2Q7f_mu0xkyLlXWPNjHmE-rDqjqiuQjHz49mScrFz-8hpE_6-Nu-CqJii9UfTJpasQpY9mR16mz_6DQMi_iiM2YKSyg875V7x8ujzbt-y7pdgDVlm1]--></g></svg>