<svg xmlns="http://www.w3.org/2000/svg" width="24" height="16" viewBox="0 0 24 16">
  <clipPath id="c"><path d="M0,0H24V16H0Z"/></clipPath>
  <g clip-path="url(#c)">
    <path d="M0,0H24V16H0Z" fill="#012169"/>
    <path d="M-1,0 10,6.5 10,9.5 -1,16 ZM25,0 14,6.5 14,9.5 25,16 Z" fill="#FFF"/>
    <path d="M25,0 13.5,6.5 11.25,6.5 22.5,0 ZM-1,0 10.5,6.5 8.25,6.5 -1,1 ZM-1,16 10.5,9.5 8.25,9.5 -1,15 ZM25,16 13.5,9.5 11.25,9.5 24,16 Z" fill="#C8102E"/>
    <path d="M9.5,0V16H14.5V0ZM0,6.5V9.5H24V6.5Z" fill="#FFF"/>
    <path d="M10.5,0V16H13.5V0ZM0,7.5V8.5H24V7.5Z" fill="#C8102E"/>
  </g>
</svg>
